8 2 2
l1i_u0-0 llc-0b0 1 0 0 0 0
l1i_u0-0 llc-0b1 1 0 0 0 0
l1i_u0-0 llc-0b2 1 0 0 0 0
l1i_u0-0 llc-0b3 1 0 0 0 0
l1i_u0-0 llc-0b4 1 0 0 0 0
l1i_u0-0 llc-0b5 1 0 0 0 0
l1i_u0-0 llc-0b6 1 0 0 0 0
l1i_u0-0 llc-0b7 1 0 0 0 0
l1i_u0-1 llc-0b0 1 0 0 0 0
l1i_u0-1 llc-0b1 1 0 0 0 0
l1i_u0-1 llc-0b2 1 0 0 0 0
l1i_u0-1 llc-0b3 1 0 0 0 0
l1i_u0-1 llc-0b4 1 0 0 0 0
l1i_u0-1 llc-0b5 1 0 0 0 0
l1i_u0-1 llc-0b6 1 0 0 0 0
l1i_u0-1 llc-0b7 1 0 0 0 0
l1i_u0-2 llc-0b0 1 0 0 0 0
l1i_u0-2 llc-0b1 1 0 0 0 0
l1i_u0-2 llc-0b2 1 0 0 0 0
l1i_u0-2 llc-0b3 1 0 0 0 0
l1i_u0-2 llc-0b4 1 0 0 0 0
l1i_u0-2 llc-0b5 1 0 0 0 0
l1i_u0-2 llc-0b6 1 0 0 0 0
l1i_u0-2 llc-0b7 1 0 0 0 0
l1i_u0-3 llc-0b0 1 0 0 0 0
l1i_u0-3 llc-0b1 1 0 0 0 0
l1i_u0-3 llc-0b2 1 0 0 0 0
l1i_u0-3 llc-0b3 1 0 0 0 0
l1i_u0-3 llc-0b4 1 0 0 0 0
l1i_u0-3 llc-0b5 1 0 0 0 0
l1i_u0-3 llc-0b6 1 0 0 0 0
l1i_u0-3 llc-0b7 1 0 0 0 0
l1i_u0-4 llc-0b0 1 0 0 0 0
l1i_u0-4 llc-0b1 1 0 0 0 0
l1i_u0-4 llc-0b2 1 0 0 0 0
l1i_u0-4 llc-0b3 1 0 0 0 0
l1i_u0-4 llc-0b4 1 0 0 0 0
l1i_u0-4 llc-0b5 1 0 0 0 0
l1i_u0-4 llc-0b6 1 0 0 0 0
l1i_u0-4 llc-0b7 1 0 0 0 0
l1i_u0-5 llc-0b0 1 0 0 0 0
l1i_u0-5 llc-0b1 1 0 0 0 0
l1i_u0-5 llc-0b2 1 0 0 0 0
l1i_u0-5 llc-0b3 1 0 0 0 0
l1i_u0-5 llc-0b4 1 0 0 0 0
l1i_u0-5 llc-0b5 1 0 0 0 0
l1i_u0-5 llc-0b6 1 0 0 0 0
l1i_u0-5 llc-0b7 1 0 0 0 0
l1i_u0-6 llc-0b0 1 0 0 0 0
l1i_u0-6 llc-0b1 1 0 0 0 0
l1i_u0-6 llc-0b2 1 0 0 0 0
l1i_u0-6 llc-0b3 1 0 0 0 0
l1i_u0-6 llc-0b4 1 0 0 0 0
l1i_u0-6 llc-0b5 1 0 0 0 0
l1i_u0-6 llc-0b6 1 0 0 0 0
l1i_u0-6 llc-0b7 1 0 0 0 0
l1i_u0-7 llc-0b0 1 0 0 0 0
l1i_u0-7 llc-0b1 1 0 0 0 0
l1i_u0-7 llc-0b2 1 0 0 0 0
l1i_u0-7 llc-0b3 1 0 0 0 0
l1i_u0-7 llc-0b4 1 0 0 0 0
l1i_u0-7 llc-0b5 1 0 0 0 0
l1i_u0-7 llc-0b6 1 0 0 0 0
l1i_u0-7 llc-0b7 1 0 0 0 0
l1i_u0-8 llc-0b0 1 0 0 0 0
l1i_u0-8 llc-0b1 1 0 0 0 0
l1i_u0-8 llc-0b2 1 0 0 0 0
l1i_u0-8 llc-0b3 1 0 0 0 0
l1i_u0-8 llc-0b4 1 0 0 0 0
l1i_u0-8 llc-0b5 1 0 0 0 0
l1i_u0-8 llc-0b6 1 0 0 0 0
l1i_u0-8 llc-0b7 1 0 0 0 0
l1i_u0-9 llc-0b0 1 0 0 0 0
l1i_u0-9 llc-0b1 1 0 0 0 0
l1i_u0-9 llc-0b2 1 0 0 0 0
l1i_u0-9 llc-0b3 1 0 0 0 0
l1i_u0-9 llc-0b4 1 0 0 0 0
l1i_u0-9 llc-0b5 1 0 0 0 0
l1i_u0-9 llc-0b6 1 0 0 0 0
l1i_u0-9 llc-0b7 1 0 0 0 0
l1i_u0-10 llc-0b0 1 0 0 0 0
l1i_u0-10 llc-0b1 1 0 0 0 0
l1i_u0-10 llc-0b2 1 0 0 0 0
l1i_u0-10 llc-0b3 1 0 0 0 0
l1i_u0-10 llc-0b4 1 0 0 0 0
l1i_u0-10 llc-0b5 1 0 0 0 0
l1i_u0-10 llc-0b6 1 0 0 0 0
l1i_u0-10 llc-0b7 1 0 0 0 0
l1i_u0-11 llc-0b0 1 0 0 0 0
l1i_u0-11 llc-0b1 1 0 0 0 0
l1i_u0-11 llc-0b2 1 0 0 0 0
l1i_u0-11 llc-0b3 1 0 0 0 0
l1i_u0-11 llc-0b4 1 0 0 0 0
l1i_u0-11 llc-0b5 1 0 0 0 0
l1i_u0-11 llc-0b6 1 0 0 0 0
l1i_u0-11 llc-0b7 1 0 0 0 0
l1i_u0-12 llc-0b0 1 0 0 0 0
l1i_u0-12 llc-0b1 1 0 0 0 0
l1i_u0-12 llc-0b2 1 0 0 0 0
l1i_u0-12 llc-0b3 1 0 0 0 0
l1i_u0-12 llc-0b4 1 0 0 0 0
l1i_u0-12 llc-0b5 1 0 0 0 0
l1i_u0-12 llc-0b6 1 0 0 0 0
l1i_u0-12 llc-0b7 1 0 0 0 0
l1i_u0-13 llc-0b0 1 0 0 0 0
l1i_u0-13 llc-0b1 1 0 0 0 0
l1i_u0-13 llc-0b2 1 0 0 0 0
l1i_u0-13 llc-0b3 1 0 0 0 0
l1i_u0-13 llc-0b4 1 0 0 0 0
l1i_u0-13 llc-0b5 1 0 0 0 0
l1i_u0-13 llc-0b6 1 0 0 0 0
l1i_u0-13 llc-0b7 1 0 0 0 0
l1i_u0-14 llc-0b0 1 0 0 0 0
l1i_u0-14 llc-0b1 1 0 0 0 0
l1i_u0-14 llc-0b2 1 0 0 0 0
l1i_u0-14 llc-0b3 1 0 0 0 0
l1i_u0-14 llc-0b4 1 0 0 0 0
l1i_u0-14 llc-0b5 1 0 0 0 0
l1i_u0-14 llc-0b6 1 0 0 0 0
l1i_u0-14 llc-0b7 1 0 0 0 0
l1i_u0-15 llc-0b0 1 0 0 0 0
l1i_u0-15 llc-0b1 1 0 0 0 0
l1i_u0-15 llc-0b2 1 0 0 0 0
l1i_u0-15 llc-0b3 1 0 0 0 0
l1i_u0-15 llc-0b4 1 0 0 0 0
l1i_u0-15 llc-0b5 1 0 0 0 0
l1i_u0-15 llc-0b6 1 0 0 0 0
l1i_u0-15 llc-0b7 1 0 0 0 0
l1d_u0-0 llc-0b0 1 0 0 0 0
l1d_u0-0 llc-0b1 1 0 0 0 0
l1d_u0-0 llc-0b2 1 0 0 0 0
l1d_u0-0 llc-0b3 1 0 0 0 0
l1d_u0-0 llc-0b4 1 0 0 0 0
l1d_u0-0 llc-0b5 1 0 0 0 0
l1d_u0-0 llc-0b6 1 0 0 0 0
l1d_u0-0 llc-0b7 1 0 0 0 0
l1d_u0-1 llc-0b0 1 0 0 0 0
l1d_u0-1 llc-0b1 1 0 0 0 0
l1d_u0-1 llc-0b2 1 0 0 0 0
l1d_u0-1 llc-0b3 1 0 0 0 0
l1d_u0-1 llc-0b4 1 0 0 0 0
l1d_u0-1 llc-0b5 1 0 0 0 0
l1d_u0-1 llc-0b6 1 0 0 0 0
l1d_u0-1 llc-0b7 1 0 0 0 0
l1d_u0-2 llc-0b0 1 0 0 0 0
l1d_u0-2 llc-0b1 1 0 0 0 0
l1d_u0-2 llc-0b2 1 0 0 0 0
l1d_u0-2 llc-0b3 1 0 0 0 0
l1d_u0-2 llc-0b4 1 0 0 0 0
l1d_u0-2 llc-0b5 1 0 0 0 0
l1d_u0-2 llc-0b6 1 0 0 0 0
l1d_u0-2 llc-0b7 1 0 0 0 0
l1d_u0-3 llc-0b0 1 0 0 0 0
l1d_u0-3 llc-0b1 1 0 0 0 0
l1d_u0-3 llc-0b2 1 0 0 0 0
l1d_u0-3 llc-0b3 1 0 0 0 0
l1d_u0-3 llc-0b4 1 0 0 0 0
l1d_u0-3 llc-0b5 1 0 0 0 0
l1d_u0-3 llc-0b6 1 0 0 0 0
l1d_u0-3 llc-0b7 1 0 0 0 0
l1d_u0-4 llc-0b0 1 0 0 0 0
l1d_u0-4 llc-0b1 1 0 0 0 0
l1d_u0-4 llc-0b2 1 0 0 0 0
l1d_u0-4 llc-0b3 1 0 0 0 0
l1d_u0-4 llc-0b4 1 0 0 0 0
l1d_u0-4 llc-0b5 1 0 0 0 0
l1d_u0-4 llc-0b6 1 0 0 0 0
l1d_u0-4 llc-0b7 1 0 0 0 0
l1d_u0-5 llc-0b0 1 0 0 0 0
l1d_u0-5 llc-0b1 1 0 0 0 0
l1d_u0-5 llc-0b2 1 0 0 0 0
l1d_u0-5 llc-0b3 1 0 0 0 0
l1d_u0-5 llc-0b4 1 0 0 0 0
l1d_u0-5 llc-0b5 1 0 0 0 0
l1d_u0-5 llc-0b6 1 0 0 0 0
l1d_u0-5 llc-0b7 1 0 0 0 0
l1d_u0-6 llc-0b0 1 0 0 0 0
l1d_u0-6 llc-0b1 1 0 0 0 0
l1d_u0-6 llc-0b2 1 0 0 0 0
l1d_u0-6 llc-0b3 1 0 0 0 0
l1d_u0-6 llc-0b4 1 0 0 0 0
l1d_u0-6 llc-0b5 1 0 0 0 0
l1d_u0-6 llc-0b6 1 0 0 0 0
l1d_u0-6 llc-0b7 1 0 0 0 0
l1d_u0-7 llc-0b0 1 0 0 0 0
l1d_u0-7 llc-0b1 1 0 0 0 0
l1d_u0-7 llc-0b2 1 0 0 0 0
l1d_u0-7 llc-0b3 1 0 0 0 0
l1d_u0-7 llc-0b4 1 0 0 0 0
l1d_u0-7 llc-0b5 1 0 0 0 0
l1d_u0-7 llc-0b6 1 0 0 0 0
l1d_u0-7 llc-0b7 1 0 0 0 0
l1d_u0-8 llc-0b0 1 0 0 0 0
l1d_u0-8 llc-0b1 1 0 0 0 0
l1d_u0-8 llc-0b2 1 0 0 0 0
l1d_u0-8 llc-0b3 1 0 0 0 0
l1d_u0-8 llc-0b4 1 0 0 0 0
l1d_u0-8 llc-0b5 1 0 0 0 0
l1d_u0-8 llc-0b6 1 0 0 0 0
l1d_u0-8 llc-0b7 1 0 0 0 0
l1d_u0-9 llc-0b0 1 0 0 0 0
l1d_u0-9 llc-0b1 1 0 0 0 0
l1d_u0-9 llc-0b2 1 0 0 0 0
l1d_u0-9 llc-0b3 1 0 0 0 0
l1d_u0-9 llc-0b4 1 0 0 0 0
l1d_u0-9 llc-0b5 1 0 0 0 0
l1d_u0-9 llc-0b6 1 0 0 0 0
l1d_u0-9 llc-0b7 1 0 0 0 0
l1d_u0-10 llc-0b0 1 0 0 0 0
l1d_u0-10 llc-0b1 1 0 0 0 0
l1d_u0-10 llc-0b2 1 0 0 0 0
l1d_u0-10 llc-0b3 1 0 0 0 0
l1d_u0-10 llc-0b4 1 0 0 0 0
l1d_u0-10 llc-0b5 1 0 0 0 0
l1d_u0-10 llc-0b6 1 0 0 0 0
l1d_u0-10 llc-0b7 1 0 0 0 0
l1d_u0-11 llc-0b0 1 0 0 0 0
l1d_u0-11 llc-0b1 1 0 0 0 0
l1d_u0-11 llc-0b2 1 0 0 0 0
l1d_u0-11 llc-0b3 1 0 0 0 0
l1d_u0-11 llc-0b4 1 0 0 0 0
l1d_u0-11 llc-0b5 1 0 0 0 0
l1d_u0-11 llc-0b6 1 0 0 0 0
l1d_u0-11 llc-0b7 1 0 0 0 0
l1d_u0-12 llc-0b0 1 0 0 0 0
l1d_u0-12 llc-0b1 1 0 0 0 0
l1d_u0-12 llc-0b2 1 0 0 0 0
l1d_u0-12 llc-0b3 1 0 0 0 0
l1d_u0-12 llc-0b4 1 0 0 0 0
l1d_u0-12 llc-0b5 1 0 0 0 0
l1d_u0-12 llc-0b6 1 0 0 0 0
l1d_u0-12 llc-0b7 1 0 0 0 0
l1d_u0-13 llc-0b0 1 0 0 0 0
l1d_u0-13 llc-0b1 1 0 0 0 0
l1d_u0-13 llc-0b2 1 0 0 0 0
l1d_u0-13 llc-0b3 1 0 0 0 0
l1d_u0-13 llc-0b4 1 0 0 0 0
l1d_u0-13 llc-0b5 1 0 0 0 0
l1d_u0-13 llc-0b6 1 0 0 0 0
l1d_u0-13 llc-0b7 1 0 0 0 0
l1d_u0-14 llc-0b0 1 0 0 0 0
l1d_u0-14 llc-0b1 1 0 0 0 0
l1d_u0-14 llc-0b2 1 0 0 0 0
l1d_u0-14 llc-0b3 1 0 0 0 0
l1d_u0-14 llc-0b4 1 0 0 0 0
l1d_u0-14 llc-0b5 1 0 0 0 0
l1d_u0-14 llc-0b6 1 0 0 0 0
l1d_u0-14 llc-0b7 1 0 0 0 0
l1d_u0-15 llc-0b0 1 0 0 0 0
l1d_u0-15 llc-0b1 1 0 0 0 0
l1d_u0-15 llc-0b2 1 0 0 0 0
l1d_u0-15 llc-0b3 1 0 0 0 0
l1d_u0-15 llc-0b4 1 0 0 0 0
l1d_u0-15 llc-0b5 1 0 0 0 0
l1d_u0-15 llc-0b6 1 0 0 0 0
l1d_u0-15 llc-0b7 1 0 0 0 0
l1i_u1-0 llc-0b0 1 1 0 1 0
l1i_u1-0 llc-0b1 1 1 0 1 0
l1i_u1-0 llc-0b2 1 1 0 1 0
l1i_u1-0 llc-0b3 1 1 0 1 0
l1i_u1-0 llc-0b4 1 1 0 1 0
l1i_u1-0 llc-0b5 1 1 0 1 0
l1i_u1-0 llc-0b6 1 1 0 1 0
l1i_u1-0 llc-0b7 1 1 0 1 0
l1i_u1-1 llc-0b0 1 1 0 1 0
l1i_u1-1 llc-0b1 1 1 0 1 0
l1i_u1-1 llc-0b2 1 1 0 1 0
l1i_u1-1 llc-0b3 1 1 0 1 0
l1i_u1-1 llc-0b4 1 1 0 1 0
l1i_u1-1 llc-0b5 1 1 0 1 0
l1i_u1-1 llc-0b6 1 1 0 1 0
l1i_u1-1 llc-0b7 1 1 0 1 0
l1i_u1-2 llc-0b0 1 1 0 1 0
l1i_u1-2 llc-0b1 1 1 0 1 0
l1i_u1-2 llc-0b2 1 1 0 1 0
l1i_u1-2 llc-0b3 1 1 0 1 0
l1i_u1-2 llc-0b4 1 1 0 1 0
l1i_u1-2 llc-0b5 1 1 0 1 0
l1i_u1-2 llc-0b6 1 1 0 1 0
l1i_u1-2 llc-0b7 1 1 0 1 0
l1i_u1-3 llc-0b0 1 1 0 1 0
l1i_u1-3 llc-0b1 1 1 0 1 0
l1i_u1-3 llc-0b2 1 1 0 1 0
l1i_u1-3 llc-0b3 1 1 0 1 0
l1i_u1-3 llc-0b4 1 1 0 1 0
l1i_u1-3 llc-0b5 1 1 0 1 0
l1i_u1-3 llc-0b6 1 1 0 1 0
l1i_u1-3 llc-0b7 1 1 0 1 0
l1i_u1-4 llc-0b0 1 1 0 1 0
l1i_u1-4 llc-0b1 1 1 0 1 0
l1i_u1-4 llc-0b2 1 1 0 1 0
l1i_u1-4 llc-0b3 1 1 0 1 0
l1i_u1-4 llc-0b4 1 1 0 1 0
l1i_u1-4 llc-0b5 1 1 0 1 0
l1i_u1-4 llc-0b6 1 1 0 1 0
l1i_u1-4 llc-0b7 1 1 0 1 0
l1i_u1-5 llc-0b0 1 1 0 1 0
l1i_u1-5 llc-0b1 1 1 0 1 0
l1i_u1-5 llc-0b2 1 1 0 1 0
l1i_u1-5 llc-0b3 1 1 0 1 0
l1i_u1-5 llc-0b4 1 1 0 1 0
l1i_u1-5 llc-0b5 1 1 0 1 0
l1i_u1-5 llc-0b6 1 1 0 1 0
l1i_u1-5 llc-0b7 1 1 0 1 0
l1i_u1-6 llc-0b0 1 1 0 1 0
l1i_u1-6 llc-0b1 1 1 0 1 0
l1i_u1-6 llc-0b2 1 1 0 1 0
l1i_u1-6 llc-0b3 1 1 0 1 0
l1i_u1-6 llc-0b4 1 1 0 1 0
l1i_u1-6 llc-0b5 1 1 0 1 0
l1i_u1-6 llc-0b6 1 1 0 1 0
l1i_u1-6 llc-0b7 1 1 0 1 0
l1i_u1-7 llc-0b0 1 1 0 1 0
l1i_u1-7 llc-0b1 1 1 0 1 0
l1i_u1-7 llc-0b2 1 1 0 1 0
l1i_u1-7 llc-0b3 1 1 0 1 0
l1i_u1-7 llc-0b4 1 1 0 1 0
l1i_u1-7 llc-0b5 1 1 0 1 0
l1i_u1-7 llc-0b6 1 1 0 1 0
l1i_u1-7 llc-0b7 1 1 0 1 0
l1i_u1-8 llc-0b0 1 1 0 1 0
l1i_u1-8 llc-0b1 1 1 0 1 0
l1i_u1-8 llc-0b2 1 1 0 1 0
l1i_u1-8 llc-0b3 1 1 0 1 0
l1i_u1-8 llc-0b4 1 1 0 1 0
l1i_u1-8 llc-0b5 1 1 0 1 0
l1i_u1-8 llc-0b6 1 1 0 1 0
l1i_u1-8 llc-0b7 1 1 0 1 0
l1i_u1-9 llc-0b0 1 1 0 1 0
l1i_u1-9 llc-0b1 1 1 0 1 0
l1i_u1-9 llc-0b2 1 1 0 1 0
l1i_u1-9 llc-0b3 1 1 0 1 0
l1i_u1-9 llc-0b4 1 1 0 1 0
l1i_u1-9 llc-0b5 1 1 0 1 0
l1i_u1-9 llc-0b6 1 1 0 1 0
l1i_u1-9 llc-0b7 1 1 0 1 0
l1i_u1-10 llc-0b0 1 1 0 1 0
l1i_u1-10 llc-0b1 1 1 0 1 0
l1i_u1-10 llc-0b2 1 1 0 1 0
l1i_u1-10 llc-0b3 1 1 0 1 0
l1i_u1-10 llc-0b4 1 1 0 1 0
l1i_u1-10 llc-0b5 1 1 0 1 0
l1i_u1-10 llc-0b6 1 1 0 1 0
l1i_u1-10 llc-0b7 1 1 0 1 0
l1i_u1-11 llc-0b0 1 1 0 1 0
l1i_u1-11 llc-0b1 1 1 0 1 0
l1i_u1-11 llc-0b2 1 1 0 1 0
l1i_u1-11 llc-0b3 1 1 0 1 0
l1i_u1-11 llc-0b4 1 1 0 1 0
l1i_u1-11 llc-0b5 1 1 0 1 0
l1i_u1-11 llc-0b6 1 1 0 1 0
l1i_u1-11 llc-0b7 1 1 0 1 0
l1i_u1-12 llc-0b0 1 1 0 1 0
l1i_u1-12 llc-0b1 1 1 0 1 0
l1i_u1-12 llc-0b2 1 1 0 1 0
l1i_u1-12 llc-0b3 1 1 0 1 0
l1i_u1-12 llc-0b4 1 1 0 1 0
l1i_u1-12 llc-0b5 1 1 0 1 0
l1i_u1-12 llc-0b6 1 1 0 1 0
l1i_u1-12 llc-0b7 1 1 0 1 0
l1i_u1-13 llc-0b0 1 1 0 1 0
l1i_u1-13 llc-0b1 1 1 0 1 0
l1i_u1-13 llc-0b2 1 1 0 1 0
l1i_u1-13 llc-0b3 1 1 0 1 0
l1i_u1-13 llc-0b4 1 1 0 1 0
l1i_u1-13 llc-0b5 1 1 0 1 0
l1i_u1-13 llc-0b6 1 1 0 1 0
l1i_u1-13 llc-0b7 1 1 0 1 0
l1i_u1-14 llc-0b0 1 1 0 1 0
l1i_u1-14 llc-0b1 1 1 0 1 0
l1i_u1-14 llc-0b2 1 1 0 1 0
l1i_u1-14 llc-0b3 1 1 0 1 0
l1i_u1-14 llc-0b4 1 1 0 1 0
l1i_u1-14 llc-0b5 1 1 0 1 0
l1i_u1-14 llc-0b6 1 1 0 1 0
l1i_u1-14 llc-0b7 1 1 0 1 0
l1i_u1-15 llc-0b0 1 1 0 1 0
l1i_u1-15 llc-0b1 1 1 0 1 0
l1i_u1-15 llc-0b2 1 1 0 1 0
l1i_u1-15 llc-0b3 1 1 0 1 0
l1i_u1-15 llc-0b4 1 1 0 1 0
l1i_u1-15 llc-0b5 1 1 0 1 0
l1i_u1-15 llc-0b6 1 1 0 1 0
l1i_u1-15 llc-0b7 1 1 0 1 0
l1d_u1-0 llc-0b0 1 1 0 1 0
l1d_u1-0 llc-0b1 1 1 0 1 0
l1d_u1-0 llc-0b2 1 1 0 1 0
l1d_u1-0 llc-0b3 1 1 0 1 0
l1d_u1-0 llc-0b4 1 1 0 1 0
l1d_u1-0 llc-0b5 1 1 0 1 0
l1d_u1-0 llc-0b6 1 1 0 1 0
l1d_u1-0 llc-0b7 1 1 0 1 0
l1d_u1-1 llc-0b0 1 1 0 1 0
l1d_u1-1 llc-0b1 1 1 0 1 0
l1d_u1-1 llc-0b2 1 1 0 1 0
l1d_u1-1 llc-0b3 1 1 0 1 0
l1d_u1-1 llc-0b4 1 1 0 1 0
l1d_u1-1 llc-0b5 1 1 0 1 0
l1d_u1-1 llc-0b6 1 1 0 1 0
l1d_u1-1 llc-0b7 1 1 0 1 0
l1d_u1-2 llc-0b0 1 1 0 1 0
l1d_u1-2 llc-0b1 1 1 0 1 0
l1d_u1-2 llc-0b2 1 1 0 1 0
l1d_u1-2 llc-0b3 1 1 0 1 0
l1d_u1-2 llc-0b4 1 1 0 1 0
l1d_u1-2 llc-0b5 1 1 0 1 0
l1d_u1-2 llc-0b6 1 1 0 1 0
l1d_u1-2 llc-0b7 1 1 0 1 0
l1d_u1-3 llc-0b0 1 1 0 1 0
l1d_u1-3 llc-0b1 1 1 0 1 0
l1d_u1-3 llc-0b2 1 1 0 1 0
l1d_u1-3 llc-0b3 1 1 0 1 0
l1d_u1-3 llc-0b4 1 1 0 1 0
l1d_u1-3 llc-0b5 1 1 0 1 0
l1d_u1-3 llc-0b6 1 1 0 1 0
l1d_u1-3 llc-0b7 1 1 0 1 0
l1d_u1-4 llc-0b0 1 1 0 1 0
l1d_u1-4 llc-0b1 1 1 0 1 0
l1d_u1-4 llc-0b2 1 1 0 1 0
l1d_u1-4 llc-0b3 1 1 0 1 0
l1d_u1-4 llc-0b4 1 1 0 1 0
l1d_u1-4 llc-0b5 1 1 0 1 0
l1d_u1-4 llc-0b6 1 1 0 1 0
l1d_u1-4 llc-0b7 1 1 0 1 0
l1d_u1-5 llc-0b0 1 1 0 1 0
l1d_u1-5 llc-0b1 1 1 0 1 0
l1d_u1-5 llc-0b2 1 1 0 1 0
l1d_u1-5 llc-0b3 1 1 0 1 0
l1d_u1-5 llc-0b4 1 1 0 1 0
l1d_u1-5 llc-0b5 1 1 0 1 0
l1d_u1-5 llc-0b6 1 1 0 1 0
l1d_u1-5 llc-0b7 1 1 0 1 0
l1d_u1-6 llc-0b0 1 1 0 1 0
l1d_u1-6 llc-0b1 1 1 0 1 0
l1d_u1-6 llc-0b2 1 1 0 1 0
l1d_u1-6 llc-0b3 1 1 0 1 0
l1d_u1-6 llc-0b4 1 1 0 1 0
l1d_u1-6 llc-0b5 1 1 0 1 0
l1d_u1-6 llc-0b6 1 1 0 1 0
l1d_u1-6 llc-0b7 1 1 0 1 0
l1d_u1-7 llc-0b0 1 1 0 1 0
l1d_u1-7 llc-0b1 1 1 0 1 0
l1d_u1-7 llc-0b2 1 1 0 1 0
l1d_u1-7 llc-0b3 1 1 0 1 0
l1d_u1-7 llc-0b4 1 1 0 1 0
l1d_u1-7 llc-0b5 1 1 0 1 0
l1d_u1-7 llc-0b6 1 1 0 1 0
l1d_u1-7 llc-0b7 1 1 0 1 0
l1d_u1-8 llc-0b0 1 1 0 1 0
l1d_u1-8 llc-0b1 1 1 0 1 0
l1d_u1-8 llc-0b2 1 1 0 1 0
l1d_u1-8 llc-0b3 1 1 0 1 0
l1d_u1-8 llc-0b4 1 1 0 1 0
l1d_u1-8 llc-0b5 1 1 0 1 0
l1d_u1-8 llc-0b6 1 1 0 1 0
l1d_u1-8 llc-0b7 1 1 0 1 0
l1d_u1-9 llc-0b0 1 1 0 1 0
l1d_u1-9 llc-0b1 1 1 0 1 0
l1d_u1-9 llc-0b2 1 1 0 1 0
l1d_u1-9 llc-0b3 1 1 0 1 0
l1d_u1-9 llc-0b4 1 1 0 1 0
l1d_u1-9 llc-0b5 1 1 0 1 0
l1d_u1-9 llc-0b6 1 1 0 1 0
l1d_u1-9 llc-0b7 1 1 0 1 0
l1d_u1-10 llc-0b0 1 1 0 1 0
l1d_u1-10 llc-0b1 1 1 0 1 0
l1d_u1-10 llc-0b2 1 1 0 1 0
l1d_u1-10 llc-0b3 1 1 0 1 0
l1d_u1-10 llc-0b4 1 1 0 1 0
l1d_u1-10 llc-0b5 1 1 0 1 0
l1d_u1-10 llc-0b6 1 1 0 1 0
l1d_u1-10 llc-0b7 1 1 0 1 0
l1d_u1-11 llc-0b0 1 1 0 1 0
l1d_u1-11 llc-0b1 1 1 0 1 0
l1d_u1-11 llc-0b2 1 1 0 1 0
l1d_u1-11 llc-0b3 1 1 0 1 0
l1d_u1-11 llc-0b4 1 1 0 1 0
l1d_u1-11 llc-0b5 1 1 0 1 0
l1d_u1-11 llc-0b6 1 1 0 1 0
l1d_u1-11 llc-0b7 1 1 0 1 0
l1d_u1-12 llc-0b0 1 1 0 1 0
l1d_u1-12 llc-0b1 1 1 0 1 0
l1d_u1-12 llc-0b2 1 1 0 1 0
l1d_u1-12 llc-0b3 1 1 0 1 0
l1d_u1-12 llc-0b4 1 1 0 1 0
l1d_u1-12 llc-0b5 1 1 0 1 0
l1d_u1-12 llc-0b6 1 1 0 1 0
l1d_u1-12 llc-0b7 1 1 0 1 0
l1d_u1-13 llc-0b0 1 1 0 1 0
l1d_u1-13 llc-0b1 1 1 0 1 0
l1d_u1-13 llc-0b2 1 1 0 1 0
l1d_u1-13 llc-0b3 1 1 0 1 0
l1d_u1-13 llc-0b4 1 1 0 1 0
l1d_u1-13 llc-0b5 1 1 0 1 0
l1d_u1-13 llc-0b6 1 1 0 1 0
l1d_u1-13 llc-0b7 1 1 0 1 0
l1d_u1-14 llc-0b0 1 1 0 1 0
l1d_u1-14 llc-0b1 1 1 0 1 0
l1d_u1-14 llc-0b2 1 1 0 1 0
l1d_u1-14 llc-0b3 1 1 0 1 0
l1d_u1-14 llc-0b4 1 1 0 1 0
l1d_u1-14 llc-0b5 1 1 0 1 0
l1d_u1-14 llc-0b6 1 1 0 1 0
l1d_u1-14 llc-0b7 1 1 0 1 0
l1d_u1-15 llc-0b0 1 1 0 1 0
l1d_u1-15 llc-0b1 1 1 0 1 0
l1d_u1-15 llc-0b2 1 1 0 1 0
l1d_u1-15 llc-0b3 1 1 0 1 0
l1d_u1-15 llc-0b4 1 1 0 1 0
l1d_u1-15 llc-0b5 1 1 0 1 0
l1d_u1-15 llc-0b6 1 1 0 1 0
l1d_u1-15 llc-0b7 1 1 0 1 0
l1i_u2-0 llc-0b0 1 2 0 2 0
l1i_u2-0 llc-0b1 1 2 0 2 0
l1i_u2-0 llc-0b2 1 2 0 2 0
l1i_u2-0 llc-0b3 1 2 0 2 0
l1i_u2-0 llc-0b4 1 2 0 2 0
l1i_u2-0 llc-0b5 1 2 0 2 0
l1i_u2-0 llc-0b6 1 2 0 2 0
l1i_u2-0 llc-0b7 1 2 0 2 0
l1i_u2-1 llc-0b0 1 2 0 2 0
l1i_u2-1 llc-0b1 1 2 0 2 0
l1i_u2-1 llc-0b2 1 2 0 2 0
l1i_u2-1 llc-0b3 1 2 0 2 0
l1i_u2-1 llc-0b4 1 2 0 2 0
l1i_u2-1 llc-0b5 1 2 0 2 0
l1i_u2-1 llc-0b6 1 2 0 2 0
l1i_u2-1 llc-0b7 1 2 0 2 0
l1i_u2-2 llc-0b0 1 2 0 2 0
l1i_u2-2 llc-0b1 1 2 0 2 0
l1i_u2-2 llc-0b2 1 2 0 2 0
l1i_u2-2 llc-0b3 1 2 0 2 0
l1i_u2-2 llc-0b4 1 2 0 2 0
l1i_u2-2 llc-0b5 1 2 0 2 0
l1i_u2-2 llc-0b6 1 2 0 2 0
l1i_u2-2 llc-0b7 1 2 0 2 0
l1i_u2-3 llc-0b0 1 2 0 2 0
l1i_u2-3 llc-0b1 1 2 0 2 0
l1i_u2-3 llc-0b2 1 2 0 2 0
l1i_u2-3 llc-0b3 1 2 0 2 0
l1i_u2-3 llc-0b4 1 2 0 2 0
l1i_u2-3 llc-0b5 1 2 0 2 0
l1i_u2-3 llc-0b6 1 2 0 2 0
l1i_u2-3 llc-0b7 1 2 0 2 0
l1i_u2-4 llc-0b0 1 2 0 2 0
l1i_u2-4 llc-0b1 1 2 0 2 0
l1i_u2-4 llc-0b2 1 2 0 2 0
l1i_u2-4 llc-0b3 1 2 0 2 0
l1i_u2-4 llc-0b4 1 2 0 2 0
l1i_u2-4 llc-0b5 1 2 0 2 0
l1i_u2-4 llc-0b6 1 2 0 2 0
l1i_u2-4 llc-0b7 1 2 0 2 0
l1i_u2-5 llc-0b0 1 2 0 2 0
l1i_u2-5 llc-0b1 1 2 0 2 0
l1i_u2-5 llc-0b2 1 2 0 2 0
l1i_u2-5 llc-0b3 1 2 0 2 0
l1i_u2-5 llc-0b4 1 2 0 2 0
l1i_u2-5 llc-0b5 1 2 0 2 0
l1i_u2-5 llc-0b6 1 2 0 2 0
l1i_u2-5 llc-0b7 1 2 0 2 0
l1i_u2-6 llc-0b0 1 2 0 2 0
l1i_u2-6 llc-0b1 1 2 0 2 0
l1i_u2-6 llc-0b2 1 2 0 2 0
l1i_u2-6 llc-0b3 1 2 0 2 0
l1i_u2-6 llc-0b4 1 2 0 2 0
l1i_u2-6 llc-0b5 1 2 0 2 0
l1i_u2-6 llc-0b6 1 2 0 2 0
l1i_u2-6 llc-0b7 1 2 0 2 0
l1i_u2-7 llc-0b0 1 2 0 2 0
l1i_u2-7 llc-0b1 1 2 0 2 0
l1i_u2-7 llc-0b2 1 2 0 2 0
l1i_u2-7 llc-0b3 1 2 0 2 0
l1i_u2-7 llc-0b4 1 2 0 2 0
l1i_u2-7 llc-0b5 1 2 0 2 0
l1i_u2-7 llc-0b6 1 2 0 2 0
l1i_u2-7 llc-0b7 1 2 0 2 0
l1i_u2-8 llc-0b0 1 2 0 2 0
l1i_u2-8 llc-0b1 1 2 0 2 0
l1i_u2-8 llc-0b2 1 2 0 2 0
l1i_u2-8 llc-0b3 1 2 0 2 0
l1i_u2-8 llc-0b4 1 2 0 2 0
l1i_u2-8 llc-0b5 1 2 0 2 0
l1i_u2-8 llc-0b6 1 2 0 2 0
l1i_u2-8 llc-0b7 1 2 0 2 0
l1i_u2-9 llc-0b0 1 2 0 2 0
l1i_u2-9 llc-0b1 1 2 0 2 0
l1i_u2-9 llc-0b2 1 2 0 2 0
l1i_u2-9 llc-0b3 1 2 0 2 0
l1i_u2-9 llc-0b4 1 2 0 2 0
l1i_u2-9 llc-0b5 1 2 0 2 0
l1i_u2-9 llc-0b6 1 2 0 2 0
l1i_u2-9 llc-0b7 1 2 0 2 0
l1i_u2-10 llc-0b0 1 2 0 2 0
l1i_u2-10 llc-0b1 1 2 0 2 0
l1i_u2-10 llc-0b2 1 2 0 2 0
l1i_u2-10 llc-0b3 1 2 0 2 0
l1i_u2-10 llc-0b4 1 2 0 2 0
l1i_u2-10 llc-0b5 1 2 0 2 0
l1i_u2-10 llc-0b6 1 2 0 2 0
l1i_u2-10 llc-0b7 1 2 0 2 0
l1i_u2-11 llc-0b0 1 2 0 2 0
l1i_u2-11 llc-0b1 1 2 0 2 0
l1i_u2-11 llc-0b2 1 2 0 2 0
l1i_u2-11 llc-0b3 1 2 0 2 0
l1i_u2-11 llc-0b4 1 2 0 2 0
l1i_u2-11 llc-0b5 1 2 0 2 0
l1i_u2-11 llc-0b6 1 2 0 2 0
l1i_u2-11 llc-0b7 1 2 0 2 0
l1i_u2-12 llc-0b0 1 2 0 2 0
l1i_u2-12 llc-0b1 1 2 0 2 0
l1i_u2-12 llc-0b2 1 2 0 2 0
l1i_u2-12 llc-0b3 1 2 0 2 0
l1i_u2-12 llc-0b4 1 2 0 2 0
l1i_u2-12 llc-0b5 1 2 0 2 0
l1i_u2-12 llc-0b6 1 2 0 2 0
l1i_u2-12 llc-0b7 1 2 0 2 0
l1i_u2-13 llc-0b0 1 2 0 2 0
l1i_u2-13 llc-0b1 1 2 0 2 0
l1i_u2-13 llc-0b2 1 2 0 2 0
l1i_u2-13 llc-0b3 1 2 0 2 0
l1i_u2-13 llc-0b4 1 2 0 2 0
l1i_u2-13 llc-0b5 1 2 0 2 0
l1i_u2-13 llc-0b6 1 2 0 2 0
l1i_u2-13 llc-0b7 1 2 0 2 0
l1i_u2-14 llc-0b0 1 2 0 2 0
l1i_u2-14 llc-0b1 1 2 0 2 0
l1i_u2-14 llc-0b2 1 2 0 2 0
l1i_u2-14 llc-0b3 1 2 0 2 0
l1i_u2-14 llc-0b4 1 2 0 2 0
l1i_u2-14 llc-0b5 1 2 0 2 0
l1i_u2-14 llc-0b6 1 2 0 2 0
l1i_u2-14 llc-0b7 1 2 0 2 0
l1i_u2-15 llc-0b0 1 2 0 2 0
l1i_u2-15 llc-0b1 1 2 0 2 0
l1i_u2-15 llc-0b2 1 2 0 2 0
l1i_u2-15 llc-0b3 1 2 0 2 0
l1i_u2-15 llc-0b4 1 2 0 2 0
l1i_u2-15 llc-0b5 1 2 0 2 0
l1i_u2-15 llc-0b6 1 2 0 2 0
l1i_u2-15 llc-0b7 1 2 0 2 0
l1d_u2-0 llc-0b0 1 2 0 2 0
l1d_u2-0 llc-0b1 1 2 0 2 0
l1d_u2-0 llc-0b2 1 2 0 2 0
l1d_u2-0 llc-0b3 1 2 0 2 0
l1d_u2-0 llc-0b4 1 2 0 2 0
l1d_u2-0 llc-0b5 1 2 0 2 0
l1d_u2-0 llc-0b6 1 2 0 2 0
l1d_u2-0 llc-0b7 1 2 0 2 0
l1d_u2-1 llc-0b0 1 2 0 2 0
l1d_u2-1 llc-0b1 1 2 0 2 0
l1d_u2-1 llc-0b2 1 2 0 2 0
l1d_u2-1 llc-0b3 1 2 0 2 0
l1d_u2-1 llc-0b4 1 2 0 2 0
l1d_u2-1 llc-0b5 1 2 0 2 0
l1d_u2-1 llc-0b6 1 2 0 2 0
l1d_u2-1 llc-0b7 1 2 0 2 0
l1d_u2-2 llc-0b0 1 2 0 2 0
l1d_u2-2 llc-0b1 1 2 0 2 0
l1d_u2-2 llc-0b2 1 2 0 2 0
l1d_u2-2 llc-0b3 1 2 0 2 0
l1d_u2-2 llc-0b4 1 2 0 2 0
l1d_u2-2 llc-0b5 1 2 0 2 0
l1d_u2-2 llc-0b6 1 2 0 2 0
l1d_u2-2 llc-0b7 1 2 0 2 0
l1d_u2-3 llc-0b0 1 2 0 2 0
l1d_u2-3 llc-0b1 1 2 0 2 0
l1d_u2-3 llc-0b2 1 2 0 2 0
l1d_u2-3 llc-0b3 1 2 0 2 0
l1d_u2-3 llc-0b4 1 2 0 2 0
l1d_u2-3 llc-0b5 1 2 0 2 0
l1d_u2-3 llc-0b6 1 2 0 2 0
l1d_u2-3 llc-0b7 1 2 0 2 0
l1d_u2-4 llc-0b0 1 2 0 2 0
l1d_u2-4 llc-0b1 1 2 0 2 0
l1d_u2-4 llc-0b2 1 2 0 2 0
l1d_u2-4 llc-0b3 1 2 0 2 0
l1d_u2-4 llc-0b4 1 2 0 2 0
l1d_u2-4 llc-0b5 1 2 0 2 0
l1d_u2-4 llc-0b6 1 2 0 2 0
l1d_u2-4 llc-0b7 1 2 0 2 0
l1d_u2-5 llc-0b0 1 2 0 2 0
l1d_u2-5 llc-0b1 1 2 0 2 0
l1d_u2-5 llc-0b2 1 2 0 2 0
l1d_u2-5 llc-0b3 1 2 0 2 0
l1d_u2-5 llc-0b4 1 2 0 2 0
l1d_u2-5 llc-0b5 1 2 0 2 0
l1d_u2-5 llc-0b6 1 2 0 2 0
l1d_u2-5 llc-0b7 1 2 0 2 0
l1d_u2-6 llc-0b0 1 2 0 2 0
l1d_u2-6 llc-0b1 1 2 0 2 0
l1d_u2-6 llc-0b2 1 2 0 2 0
l1d_u2-6 llc-0b3 1 2 0 2 0
l1d_u2-6 llc-0b4 1 2 0 2 0
l1d_u2-6 llc-0b5 1 2 0 2 0
l1d_u2-6 llc-0b6 1 2 0 2 0
l1d_u2-6 llc-0b7 1 2 0 2 0
l1d_u2-7 llc-0b0 1 2 0 2 0
l1d_u2-7 llc-0b1 1 2 0 2 0
l1d_u2-7 llc-0b2 1 2 0 2 0
l1d_u2-7 llc-0b3 1 2 0 2 0
l1d_u2-7 llc-0b4 1 2 0 2 0
l1d_u2-7 llc-0b5 1 2 0 2 0
l1d_u2-7 llc-0b6 1 2 0 2 0
l1d_u2-7 llc-0b7 1 2 0 2 0
l1d_u2-8 llc-0b0 1 2 0 2 0
l1d_u2-8 llc-0b1 1 2 0 2 0
l1d_u2-8 llc-0b2 1 2 0 2 0
l1d_u2-8 llc-0b3 1 2 0 2 0
l1d_u2-8 llc-0b4 1 2 0 2 0
l1d_u2-8 llc-0b5 1 2 0 2 0
l1d_u2-8 llc-0b6 1 2 0 2 0
l1d_u2-8 llc-0b7 1 2 0 2 0
l1d_u2-9 llc-0b0 1 2 0 2 0
l1d_u2-9 llc-0b1 1 2 0 2 0
l1d_u2-9 llc-0b2 1 2 0 2 0
l1d_u2-9 llc-0b3 1 2 0 2 0
l1d_u2-9 llc-0b4 1 2 0 2 0
l1d_u2-9 llc-0b5 1 2 0 2 0
l1d_u2-9 llc-0b6 1 2 0 2 0
l1d_u2-9 llc-0b7 1 2 0 2 0
l1d_u2-10 llc-0b0 1 2 0 2 0
l1d_u2-10 llc-0b1 1 2 0 2 0
l1d_u2-10 llc-0b2 1 2 0 2 0
l1d_u2-10 llc-0b3 1 2 0 2 0
l1d_u2-10 llc-0b4 1 2 0 2 0
l1d_u2-10 llc-0b5 1 2 0 2 0
l1d_u2-10 llc-0b6 1 2 0 2 0
l1d_u2-10 llc-0b7 1 2 0 2 0
l1d_u2-11 llc-0b0 1 2 0 2 0
l1d_u2-11 llc-0b1 1 2 0 2 0
l1d_u2-11 llc-0b2 1 2 0 2 0
l1d_u2-11 llc-0b3 1 2 0 2 0
l1d_u2-11 llc-0b4 1 2 0 2 0
l1d_u2-11 llc-0b5 1 2 0 2 0
l1d_u2-11 llc-0b6 1 2 0 2 0
l1d_u2-11 llc-0b7 1 2 0 2 0
l1d_u2-12 llc-0b0 1 2 0 2 0
l1d_u2-12 llc-0b1 1 2 0 2 0
l1d_u2-12 llc-0b2 1 2 0 2 0
l1d_u2-12 llc-0b3 1 2 0 2 0
l1d_u2-12 llc-0b4 1 2 0 2 0
l1d_u2-12 llc-0b5 1 2 0 2 0
l1d_u2-12 llc-0b6 1 2 0 2 0
l1d_u2-12 llc-0b7 1 2 0 2 0
l1d_u2-13 llc-0b0 1 2 0 2 0
l1d_u2-13 llc-0b1 1 2 0 2 0
l1d_u2-13 llc-0b2 1 2 0 2 0
l1d_u2-13 llc-0b3 1 2 0 2 0
l1d_u2-13 llc-0b4 1 2 0 2 0
l1d_u2-13 llc-0b5 1 2 0 2 0
l1d_u2-13 llc-0b6 1 2 0 2 0
l1d_u2-13 llc-0b7 1 2 0 2 0
l1d_u2-14 llc-0b0 1 2 0 2 0
l1d_u2-14 llc-0b1 1 2 0 2 0
l1d_u2-14 llc-0b2 1 2 0 2 0
l1d_u2-14 llc-0b3 1 2 0 2 0
l1d_u2-14 llc-0b4 1 2 0 2 0
l1d_u2-14 llc-0b5 1 2 0 2 0
l1d_u2-14 llc-0b6 1 2 0 2 0
l1d_u2-14 llc-0b7 1 2 0 2 0
l1d_u2-15 llc-0b0 1 2 0 2 0
l1d_u2-15 llc-0b1 1 2 0 2 0
l1d_u2-15 llc-0b2 1 2 0 2 0
l1d_u2-15 llc-0b3 1 2 0 2 0
l1d_u2-15 llc-0b4 1 2 0 2 0
l1d_u2-15 llc-0b5 1 2 0 2 0
l1d_u2-15 llc-0b6 1 2 0 2 0
l1d_u2-15 llc-0b7 1 2 0 2 0
l1i_u3-0 llc-0b0 1 3 0 3 0
l1i_u3-0 llc-0b1 1 3 0 3 0
l1i_u3-0 llc-0b2 1 3 0 3 0
l1i_u3-0 llc-0b3 1 3 0 3 0
l1i_u3-0 llc-0b4 1 3 0 3 0
l1i_u3-0 llc-0b5 1 3 0 3 0
l1i_u3-0 llc-0b6 1 3 0 3 0
l1i_u3-0 llc-0b7 1 3 0 3 0
l1i_u3-1 llc-0b0 1 3 0 3 0
l1i_u3-1 llc-0b1 1 3 0 3 0
l1i_u3-1 llc-0b2 1 3 0 3 0
l1i_u3-1 llc-0b3 1 3 0 3 0
l1i_u3-1 llc-0b4 1 3 0 3 0
l1i_u3-1 llc-0b5 1 3 0 3 0
l1i_u3-1 llc-0b6 1 3 0 3 0
l1i_u3-1 llc-0b7 1 3 0 3 0
l1i_u3-2 llc-0b0 1 3 0 3 0
l1i_u3-2 llc-0b1 1 3 0 3 0
l1i_u3-2 llc-0b2 1 3 0 3 0
l1i_u3-2 llc-0b3 1 3 0 3 0
l1i_u3-2 llc-0b4 1 3 0 3 0
l1i_u3-2 llc-0b5 1 3 0 3 0
l1i_u3-2 llc-0b6 1 3 0 3 0
l1i_u3-2 llc-0b7 1 3 0 3 0
l1i_u3-3 llc-0b0 1 3 0 3 0
l1i_u3-3 llc-0b1 1 3 0 3 0
l1i_u3-3 llc-0b2 1 3 0 3 0
l1i_u3-3 llc-0b3 1 3 0 3 0
l1i_u3-3 llc-0b4 1 3 0 3 0
l1i_u3-3 llc-0b5 1 3 0 3 0
l1i_u3-3 llc-0b6 1 3 0 3 0
l1i_u3-3 llc-0b7 1 3 0 3 0
l1i_u3-4 llc-0b0 1 3 0 3 0
l1i_u3-4 llc-0b1 1 3 0 3 0
l1i_u3-4 llc-0b2 1 3 0 3 0
l1i_u3-4 llc-0b3 1 3 0 3 0
l1i_u3-4 llc-0b4 1 3 0 3 0
l1i_u3-4 llc-0b5 1 3 0 3 0
l1i_u3-4 llc-0b6 1 3 0 3 0
l1i_u3-4 llc-0b7 1 3 0 3 0
l1i_u3-5 llc-0b0 1 3 0 3 0
l1i_u3-5 llc-0b1 1 3 0 3 0
l1i_u3-5 llc-0b2 1 3 0 3 0
l1i_u3-5 llc-0b3 1 3 0 3 0
l1i_u3-5 llc-0b4 1 3 0 3 0
l1i_u3-5 llc-0b5 1 3 0 3 0
l1i_u3-5 llc-0b6 1 3 0 3 0
l1i_u3-5 llc-0b7 1 3 0 3 0
l1i_u3-6 llc-0b0 1 3 0 3 0
l1i_u3-6 llc-0b1 1 3 0 3 0
l1i_u3-6 llc-0b2 1 3 0 3 0
l1i_u3-6 llc-0b3 1 3 0 3 0
l1i_u3-6 llc-0b4 1 3 0 3 0
l1i_u3-6 llc-0b5 1 3 0 3 0
l1i_u3-6 llc-0b6 1 3 0 3 0
l1i_u3-6 llc-0b7 1 3 0 3 0
l1i_u3-7 llc-0b0 1 3 0 3 0
l1i_u3-7 llc-0b1 1 3 0 3 0
l1i_u3-7 llc-0b2 1 3 0 3 0
l1i_u3-7 llc-0b3 1 3 0 3 0
l1i_u3-7 llc-0b4 1 3 0 3 0
l1i_u3-7 llc-0b5 1 3 0 3 0
l1i_u3-7 llc-0b6 1 3 0 3 0
l1i_u3-7 llc-0b7 1 3 0 3 0
l1i_u3-8 llc-0b0 1 3 0 3 0
l1i_u3-8 llc-0b1 1 3 0 3 0
l1i_u3-8 llc-0b2 1 3 0 3 0
l1i_u3-8 llc-0b3 1 3 0 3 0
l1i_u3-8 llc-0b4 1 3 0 3 0
l1i_u3-8 llc-0b5 1 3 0 3 0
l1i_u3-8 llc-0b6 1 3 0 3 0
l1i_u3-8 llc-0b7 1 3 0 3 0
l1i_u3-9 llc-0b0 1 3 0 3 0
l1i_u3-9 llc-0b1 1 3 0 3 0
l1i_u3-9 llc-0b2 1 3 0 3 0
l1i_u3-9 llc-0b3 1 3 0 3 0
l1i_u3-9 llc-0b4 1 3 0 3 0
l1i_u3-9 llc-0b5 1 3 0 3 0
l1i_u3-9 llc-0b6 1 3 0 3 0
l1i_u3-9 llc-0b7 1 3 0 3 0
l1i_u3-10 llc-0b0 1 3 0 3 0
l1i_u3-10 llc-0b1 1 3 0 3 0
l1i_u3-10 llc-0b2 1 3 0 3 0
l1i_u3-10 llc-0b3 1 3 0 3 0
l1i_u3-10 llc-0b4 1 3 0 3 0
l1i_u3-10 llc-0b5 1 3 0 3 0
l1i_u3-10 llc-0b6 1 3 0 3 0
l1i_u3-10 llc-0b7 1 3 0 3 0
l1i_u3-11 llc-0b0 1 3 0 3 0
l1i_u3-11 llc-0b1 1 3 0 3 0
l1i_u3-11 llc-0b2 1 3 0 3 0
l1i_u3-11 llc-0b3 1 3 0 3 0
l1i_u3-11 llc-0b4 1 3 0 3 0
l1i_u3-11 llc-0b5 1 3 0 3 0
l1i_u3-11 llc-0b6 1 3 0 3 0
l1i_u3-11 llc-0b7 1 3 0 3 0
l1i_u3-12 llc-0b0 1 3 0 3 0
l1i_u3-12 llc-0b1 1 3 0 3 0
l1i_u3-12 llc-0b2 1 3 0 3 0
l1i_u3-12 llc-0b3 1 3 0 3 0
l1i_u3-12 llc-0b4 1 3 0 3 0
l1i_u3-12 llc-0b5 1 3 0 3 0
l1i_u3-12 llc-0b6 1 3 0 3 0
l1i_u3-12 llc-0b7 1 3 0 3 0
l1i_u3-13 llc-0b0 1 3 0 3 0
l1i_u3-13 llc-0b1 1 3 0 3 0
l1i_u3-13 llc-0b2 1 3 0 3 0
l1i_u3-13 llc-0b3 1 3 0 3 0
l1i_u3-13 llc-0b4 1 3 0 3 0
l1i_u3-13 llc-0b5 1 3 0 3 0
l1i_u3-13 llc-0b6 1 3 0 3 0
l1i_u3-13 llc-0b7 1 3 0 3 0
l1i_u3-14 llc-0b0 1 3 0 3 0
l1i_u3-14 llc-0b1 1 3 0 3 0
l1i_u3-14 llc-0b2 1 3 0 3 0
l1i_u3-14 llc-0b3 1 3 0 3 0
l1i_u3-14 llc-0b4 1 3 0 3 0
l1i_u3-14 llc-0b5 1 3 0 3 0
l1i_u3-14 llc-0b6 1 3 0 3 0
l1i_u3-14 llc-0b7 1 3 0 3 0
l1i_u3-15 llc-0b0 1 3 0 3 0
l1i_u3-15 llc-0b1 1 3 0 3 0
l1i_u3-15 llc-0b2 1 3 0 3 0
l1i_u3-15 llc-0b3 1 3 0 3 0
l1i_u3-15 llc-0b4 1 3 0 3 0
l1i_u3-15 llc-0b5 1 3 0 3 0
l1i_u3-15 llc-0b6 1 3 0 3 0
l1i_u3-15 llc-0b7 1 3 0 3 0
l1d_u3-0 llc-0b0 1 3 0 3 0
l1d_u3-0 llc-0b1 1 3 0 3 0
l1d_u3-0 llc-0b2 1 3 0 3 0
l1d_u3-0 llc-0b3 1 3 0 3 0
l1d_u3-0 llc-0b4 1 3 0 3 0
l1d_u3-0 llc-0b5 1 3 0 3 0
l1d_u3-0 llc-0b6 1 3 0 3 0
l1d_u3-0 llc-0b7 1 3 0 3 0
l1d_u3-1 llc-0b0 1 3 0 3 0
l1d_u3-1 llc-0b1 1 3 0 3 0
l1d_u3-1 llc-0b2 1 3 0 3 0
l1d_u3-1 llc-0b3 1 3 0 3 0
l1d_u3-1 llc-0b4 1 3 0 3 0
l1d_u3-1 llc-0b5 1 3 0 3 0
l1d_u3-1 llc-0b6 1 3 0 3 0
l1d_u3-1 llc-0b7 1 3 0 3 0
l1d_u3-2 llc-0b0 1 3 0 3 0
l1d_u3-2 llc-0b1 1 3 0 3 0
l1d_u3-2 llc-0b2 1 3 0 3 0
l1d_u3-2 llc-0b3 1 3 0 3 0
l1d_u3-2 llc-0b4 1 3 0 3 0
l1d_u3-2 llc-0b5 1 3 0 3 0
l1d_u3-2 llc-0b6 1 3 0 3 0
l1d_u3-2 llc-0b7 1 3 0 3 0
l1d_u3-3 llc-0b0 1 3 0 3 0
l1d_u3-3 llc-0b1 1 3 0 3 0
l1d_u3-3 llc-0b2 1 3 0 3 0
l1d_u3-3 llc-0b3 1 3 0 3 0
l1d_u3-3 llc-0b4 1 3 0 3 0
l1d_u3-3 llc-0b5 1 3 0 3 0
l1d_u3-3 llc-0b6 1 3 0 3 0
l1d_u3-3 llc-0b7 1 3 0 3 0
l1d_u3-4 llc-0b0 1 3 0 3 0
l1d_u3-4 llc-0b1 1 3 0 3 0
l1d_u3-4 llc-0b2 1 3 0 3 0
l1d_u3-4 llc-0b3 1 3 0 3 0
l1d_u3-4 llc-0b4 1 3 0 3 0
l1d_u3-4 llc-0b5 1 3 0 3 0
l1d_u3-4 llc-0b6 1 3 0 3 0
l1d_u3-4 llc-0b7 1 3 0 3 0
l1d_u3-5 llc-0b0 1 3 0 3 0
l1d_u3-5 llc-0b1 1 3 0 3 0
l1d_u3-5 llc-0b2 1 3 0 3 0
l1d_u3-5 llc-0b3 1 3 0 3 0
l1d_u3-5 llc-0b4 1 3 0 3 0
l1d_u3-5 llc-0b5 1 3 0 3 0
l1d_u3-5 llc-0b6 1 3 0 3 0
l1d_u3-5 llc-0b7 1 3 0 3 0
l1d_u3-6 llc-0b0 1 3 0 3 0
l1d_u3-6 llc-0b1 1 3 0 3 0
l1d_u3-6 llc-0b2 1 3 0 3 0
l1d_u3-6 llc-0b3 1 3 0 3 0
l1d_u3-6 llc-0b4 1 3 0 3 0
l1d_u3-6 llc-0b5 1 3 0 3 0
l1d_u3-6 llc-0b6 1 3 0 3 0
l1d_u3-6 llc-0b7 1 3 0 3 0
l1d_u3-7 llc-0b0 1 3 0 3 0
l1d_u3-7 llc-0b1 1 3 0 3 0
l1d_u3-7 llc-0b2 1 3 0 3 0
l1d_u3-7 llc-0b3 1 3 0 3 0
l1d_u3-7 llc-0b4 1 3 0 3 0
l1d_u3-7 llc-0b5 1 3 0 3 0
l1d_u3-7 llc-0b6 1 3 0 3 0
l1d_u3-7 llc-0b7 1 3 0 3 0
l1d_u3-8 llc-0b0 1 3 0 3 0
l1d_u3-8 llc-0b1 1 3 0 3 0
l1d_u3-8 llc-0b2 1 3 0 3 0
l1d_u3-8 llc-0b3 1 3 0 3 0
l1d_u3-8 llc-0b4 1 3 0 3 0
l1d_u3-8 llc-0b5 1 3 0 3 0
l1d_u3-8 llc-0b6 1 3 0 3 0
l1d_u3-8 llc-0b7 1 3 0 3 0
l1d_u3-9 llc-0b0 1 3 0 3 0
l1d_u3-9 llc-0b1 1 3 0 3 0
l1d_u3-9 llc-0b2 1 3 0 3 0
l1d_u3-9 llc-0b3 1 3 0 3 0
l1d_u3-9 llc-0b4 1 3 0 3 0
l1d_u3-9 llc-0b5 1 3 0 3 0
l1d_u3-9 llc-0b6 1 3 0 3 0
l1d_u3-9 llc-0b7 1 3 0 3 0
l1d_u3-10 llc-0b0 1 3 0 3 0
l1d_u3-10 llc-0b1 1 3 0 3 0
l1d_u3-10 llc-0b2 1 3 0 3 0
l1d_u3-10 llc-0b3 1 3 0 3 0
l1d_u3-10 llc-0b4 1 3 0 3 0
l1d_u3-10 llc-0b5 1 3 0 3 0
l1d_u3-10 llc-0b6 1 3 0 3 0
l1d_u3-10 llc-0b7 1 3 0 3 0
l1d_u3-11 llc-0b0 1 3 0 3 0
l1d_u3-11 llc-0b1 1 3 0 3 0
l1d_u3-11 llc-0b2 1 3 0 3 0
l1d_u3-11 llc-0b3 1 3 0 3 0
l1d_u3-11 llc-0b4 1 3 0 3 0
l1d_u3-11 llc-0b5 1 3 0 3 0
l1d_u3-11 llc-0b6 1 3 0 3 0
l1d_u3-11 llc-0b7 1 3 0 3 0
l1d_u3-12 llc-0b0 1 3 0 3 0
l1d_u3-12 llc-0b1 1 3 0 3 0
l1d_u3-12 llc-0b2 1 3 0 3 0
l1d_u3-12 llc-0b3 1 3 0 3 0
l1d_u3-12 llc-0b4 1 3 0 3 0
l1d_u3-12 llc-0b5 1 3 0 3 0
l1d_u3-12 llc-0b6 1 3 0 3 0
l1d_u3-12 llc-0b7 1 3 0 3 0
l1d_u3-13 llc-0b0 1 3 0 3 0
l1d_u3-13 llc-0b1 1 3 0 3 0
l1d_u3-13 llc-0b2 1 3 0 3 0
l1d_u3-13 llc-0b3 1 3 0 3 0
l1d_u3-13 llc-0b4 1 3 0 3 0
l1d_u3-13 llc-0b5 1 3 0 3 0
l1d_u3-13 llc-0b6 1 3 0 3 0
l1d_u3-13 llc-0b7 1 3 0 3 0
l1d_u3-14 llc-0b0 1 3 0 3 0
l1d_u3-14 llc-0b1 1 3 0 3 0
l1d_u3-14 llc-0b2 1 3 0 3 0
l1d_u3-14 llc-0b3 1 3 0 3 0
l1d_u3-14 llc-0b4 1 3 0 3 0
l1d_u3-14 llc-0b5 1 3 0 3 0
l1d_u3-14 llc-0b6 1 3 0 3 0
l1d_u3-14 llc-0b7 1 3 0 3 0
l1d_u3-15 llc-0b0 1 3 0 3 0
l1d_u3-15 llc-0b1 1 3 0 3 0
l1d_u3-15 llc-0b2 1 3 0 3 0
l1d_u3-15 llc-0b3 1 3 0 3 0
l1d_u3-15 llc-0b4 1 3 0 3 0
l1d_u3-15 llc-0b5 1 3 0 3 0
l1d_u3-15 llc-0b6 1 3 0 3 0
l1d_u3-15 llc-0b7 1 3 0 3 0
l1i_u4-0 llc-0b0 1 4 0 4 0
l1i_u4-0 llc-0b1 1 4 0 4 0
l1i_u4-0 llc-0b2 1 4 0 4 0
l1i_u4-0 llc-0b3 1 4 0 4 0
l1i_u4-0 llc-0b4 1 4 0 4 0
l1i_u4-0 llc-0b5 1 4 0 4 0
l1i_u4-0 llc-0b6 1 4 0 4 0
l1i_u4-0 llc-0b7 1 4 0 4 0
l1i_u4-1 llc-0b0 1 4 0 4 0
l1i_u4-1 llc-0b1 1 4 0 4 0
l1i_u4-1 llc-0b2 1 4 0 4 0
l1i_u4-1 llc-0b3 1 4 0 4 0
l1i_u4-1 llc-0b4 1 4 0 4 0
l1i_u4-1 llc-0b5 1 4 0 4 0
l1i_u4-1 llc-0b6 1 4 0 4 0
l1i_u4-1 llc-0b7 1 4 0 4 0
l1i_u4-2 llc-0b0 1 4 0 4 0
l1i_u4-2 llc-0b1 1 4 0 4 0
l1i_u4-2 llc-0b2 1 4 0 4 0
l1i_u4-2 llc-0b3 1 4 0 4 0
l1i_u4-2 llc-0b4 1 4 0 4 0
l1i_u4-2 llc-0b5 1 4 0 4 0
l1i_u4-2 llc-0b6 1 4 0 4 0
l1i_u4-2 llc-0b7 1 4 0 4 0
l1i_u4-3 llc-0b0 1 4 0 4 0
l1i_u4-3 llc-0b1 1 4 0 4 0
l1i_u4-3 llc-0b2 1 4 0 4 0
l1i_u4-3 llc-0b3 1 4 0 4 0
l1i_u4-3 llc-0b4 1 4 0 4 0
l1i_u4-3 llc-0b5 1 4 0 4 0
l1i_u4-3 llc-0b6 1 4 0 4 0
l1i_u4-3 llc-0b7 1 4 0 4 0
l1i_u4-4 llc-0b0 1 4 0 4 0
l1i_u4-4 llc-0b1 1 4 0 4 0
l1i_u4-4 llc-0b2 1 4 0 4 0
l1i_u4-4 llc-0b3 1 4 0 4 0
l1i_u4-4 llc-0b4 1 4 0 4 0
l1i_u4-4 llc-0b5 1 4 0 4 0
l1i_u4-4 llc-0b6 1 4 0 4 0
l1i_u4-4 llc-0b7 1 4 0 4 0
l1i_u4-5 llc-0b0 1 4 0 4 0
l1i_u4-5 llc-0b1 1 4 0 4 0
l1i_u4-5 llc-0b2 1 4 0 4 0
l1i_u4-5 llc-0b3 1 4 0 4 0
l1i_u4-5 llc-0b4 1 4 0 4 0
l1i_u4-5 llc-0b5 1 4 0 4 0
l1i_u4-5 llc-0b6 1 4 0 4 0
l1i_u4-5 llc-0b7 1 4 0 4 0
l1i_u4-6 llc-0b0 1 4 0 4 0
l1i_u4-6 llc-0b1 1 4 0 4 0
l1i_u4-6 llc-0b2 1 4 0 4 0
l1i_u4-6 llc-0b3 1 4 0 4 0
l1i_u4-6 llc-0b4 1 4 0 4 0
l1i_u4-6 llc-0b5 1 4 0 4 0
l1i_u4-6 llc-0b6 1 4 0 4 0
l1i_u4-6 llc-0b7 1 4 0 4 0
l1i_u4-7 llc-0b0 1 4 0 4 0
l1i_u4-7 llc-0b1 1 4 0 4 0
l1i_u4-7 llc-0b2 1 4 0 4 0
l1i_u4-7 llc-0b3 1 4 0 4 0
l1i_u4-7 llc-0b4 1 4 0 4 0
l1i_u4-7 llc-0b5 1 4 0 4 0
l1i_u4-7 llc-0b6 1 4 0 4 0
l1i_u4-7 llc-0b7 1 4 0 4 0
l1i_u4-8 llc-0b0 1 4 0 4 0
l1i_u4-8 llc-0b1 1 4 0 4 0
l1i_u4-8 llc-0b2 1 4 0 4 0
l1i_u4-8 llc-0b3 1 4 0 4 0
l1i_u4-8 llc-0b4 1 4 0 4 0
l1i_u4-8 llc-0b5 1 4 0 4 0
l1i_u4-8 llc-0b6 1 4 0 4 0
l1i_u4-8 llc-0b7 1 4 0 4 0
l1i_u4-9 llc-0b0 1 4 0 4 0
l1i_u4-9 llc-0b1 1 4 0 4 0
l1i_u4-9 llc-0b2 1 4 0 4 0
l1i_u4-9 llc-0b3 1 4 0 4 0
l1i_u4-9 llc-0b4 1 4 0 4 0
l1i_u4-9 llc-0b5 1 4 0 4 0
l1i_u4-9 llc-0b6 1 4 0 4 0
l1i_u4-9 llc-0b7 1 4 0 4 0
l1i_u4-10 llc-0b0 1 4 0 4 0
l1i_u4-10 llc-0b1 1 4 0 4 0
l1i_u4-10 llc-0b2 1 4 0 4 0
l1i_u4-10 llc-0b3 1 4 0 4 0
l1i_u4-10 llc-0b4 1 4 0 4 0
l1i_u4-10 llc-0b5 1 4 0 4 0
l1i_u4-10 llc-0b6 1 4 0 4 0
l1i_u4-10 llc-0b7 1 4 0 4 0
l1i_u4-11 llc-0b0 1 4 0 4 0
l1i_u4-11 llc-0b1 1 4 0 4 0
l1i_u4-11 llc-0b2 1 4 0 4 0
l1i_u4-11 llc-0b3 1 4 0 4 0
l1i_u4-11 llc-0b4 1 4 0 4 0
l1i_u4-11 llc-0b5 1 4 0 4 0
l1i_u4-11 llc-0b6 1 4 0 4 0
l1i_u4-11 llc-0b7 1 4 0 4 0
l1i_u4-12 llc-0b0 1 4 0 4 0
l1i_u4-12 llc-0b1 1 4 0 4 0
l1i_u4-12 llc-0b2 1 4 0 4 0
l1i_u4-12 llc-0b3 1 4 0 4 0
l1i_u4-12 llc-0b4 1 4 0 4 0
l1i_u4-12 llc-0b5 1 4 0 4 0
l1i_u4-12 llc-0b6 1 4 0 4 0
l1i_u4-12 llc-0b7 1 4 0 4 0
l1i_u4-13 llc-0b0 1 4 0 4 0
l1i_u4-13 llc-0b1 1 4 0 4 0
l1i_u4-13 llc-0b2 1 4 0 4 0
l1i_u4-13 llc-0b3 1 4 0 4 0
l1i_u4-13 llc-0b4 1 4 0 4 0
l1i_u4-13 llc-0b5 1 4 0 4 0
l1i_u4-13 llc-0b6 1 4 0 4 0
l1i_u4-13 llc-0b7 1 4 0 4 0
l1i_u4-14 llc-0b0 1 4 0 4 0
l1i_u4-14 llc-0b1 1 4 0 4 0
l1i_u4-14 llc-0b2 1 4 0 4 0
l1i_u4-14 llc-0b3 1 4 0 4 0
l1i_u4-14 llc-0b4 1 4 0 4 0
l1i_u4-14 llc-0b5 1 4 0 4 0
l1i_u4-14 llc-0b6 1 4 0 4 0
l1i_u4-14 llc-0b7 1 4 0 4 0
l1i_u4-15 llc-0b0 1 4 0 4 0
l1i_u4-15 llc-0b1 1 4 0 4 0
l1i_u4-15 llc-0b2 1 4 0 4 0
l1i_u4-15 llc-0b3 1 4 0 4 0
l1i_u4-15 llc-0b4 1 4 0 4 0
l1i_u4-15 llc-0b5 1 4 0 4 0
l1i_u4-15 llc-0b6 1 4 0 4 0
l1i_u4-15 llc-0b7 1 4 0 4 0
l1d_u4-0 llc-0b0 1 4 0 4 0
l1d_u4-0 llc-0b1 1 4 0 4 0
l1d_u4-0 llc-0b2 1 4 0 4 0
l1d_u4-0 llc-0b3 1 4 0 4 0
l1d_u4-0 llc-0b4 1 4 0 4 0
l1d_u4-0 llc-0b5 1 4 0 4 0
l1d_u4-0 llc-0b6 1 4 0 4 0
l1d_u4-0 llc-0b7 1 4 0 4 0
l1d_u4-1 llc-0b0 1 4 0 4 0
l1d_u4-1 llc-0b1 1 4 0 4 0
l1d_u4-1 llc-0b2 1 4 0 4 0
l1d_u4-1 llc-0b3 1 4 0 4 0
l1d_u4-1 llc-0b4 1 4 0 4 0
l1d_u4-1 llc-0b5 1 4 0 4 0
l1d_u4-1 llc-0b6 1 4 0 4 0
l1d_u4-1 llc-0b7 1 4 0 4 0
l1d_u4-2 llc-0b0 1 4 0 4 0
l1d_u4-2 llc-0b1 1 4 0 4 0
l1d_u4-2 llc-0b2 1 4 0 4 0
l1d_u4-2 llc-0b3 1 4 0 4 0
l1d_u4-2 llc-0b4 1 4 0 4 0
l1d_u4-2 llc-0b5 1 4 0 4 0
l1d_u4-2 llc-0b6 1 4 0 4 0
l1d_u4-2 llc-0b7 1 4 0 4 0
l1d_u4-3 llc-0b0 1 4 0 4 0
l1d_u4-3 llc-0b1 1 4 0 4 0
l1d_u4-3 llc-0b2 1 4 0 4 0
l1d_u4-3 llc-0b3 1 4 0 4 0
l1d_u4-3 llc-0b4 1 4 0 4 0
l1d_u4-3 llc-0b5 1 4 0 4 0
l1d_u4-3 llc-0b6 1 4 0 4 0
l1d_u4-3 llc-0b7 1 4 0 4 0
l1d_u4-4 llc-0b0 1 4 0 4 0
l1d_u4-4 llc-0b1 1 4 0 4 0
l1d_u4-4 llc-0b2 1 4 0 4 0
l1d_u4-4 llc-0b3 1 4 0 4 0
l1d_u4-4 llc-0b4 1 4 0 4 0
l1d_u4-4 llc-0b5 1 4 0 4 0
l1d_u4-4 llc-0b6 1 4 0 4 0
l1d_u4-4 llc-0b7 1 4 0 4 0
l1d_u4-5 llc-0b0 1 4 0 4 0
l1d_u4-5 llc-0b1 1 4 0 4 0
l1d_u4-5 llc-0b2 1 4 0 4 0
l1d_u4-5 llc-0b3 1 4 0 4 0
l1d_u4-5 llc-0b4 1 4 0 4 0
l1d_u4-5 llc-0b5 1 4 0 4 0
l1d_u4-5 llc-0b6 1 4 0 4 0
l1d_u4-5 llc-0b7 1 4 0 4 0
l1d_u4-6 llc-0b0 1 4 0 4 0
l1d_u4-6 llc-0b1 1 4 0 4 0
l1d_u4-6 llc-0b2 1 4 0 4 0
l1d_u4-6 llc-0b3 1 4 0 4 0
l1d_u4-6 llc-0b4 1 4 0 4 0
l1d_u4-6 llc-0b5 1 4 0 4 0
l1d_u4-6 llc-0b6 1 4 0 4 0
l1d_u4-6 llc-0b7 1 4 0 4 0
l1d_u4-7 llc-0b0 1 4 0 4 0
l1d_u4-7 llc-0b1 1 4 0 4 0
l1d_u4-7 llc-0b2 1 4 0 4 0
l1d_u4-7 llc-0b3 1 4 0 4 0
l1d_u4-7 llc-0b4 1 4 0 4 0
l1d_u4-7 llc-0b5 1 4 0 4 0
l1d_u4-7 llc-0b6 1 4 0 4 0
l1d_u4-7 llc-0b7 1 4 0 4 0
l1d_u4-8 llc-0b0 1 4 0 4 0
l1d_u4-8 llc-0b1 1 4 0 4 0
l1d_u4-8 llc-0b2 1 4 0 4 0
l1d_u4-8 llc-0b3 1 4 0 4 0
l1d_u4-8 llc-0b4 1 4 0 4 0
l1d_u4-8 llc-0b5 1 4 0 4 0
l1d_u4-8 llc-0b6 1 4 0 4 0
l1d_u4-8 llc-0b7 1 4 0 4 0
l1d_u4-9 llc-0b0 1 4 0 4 0
l1d_u4-9 llc-0b1 1 4 0 4 0
l1d_u4-9 llc-0b2 1 4 0 4 0
l1d_u4-9 llc-0b3 1 4 0 4 0
l1d_u4-9 llc-0b4 1 4 0 4 0
l1d_u4-9 llc-0b5 1 4 0 4 0
l1d_u4-9 llc-0b6 1 4 0 4 0
l1d_u4-9 llc-0b7 1 4 0 4 0
l1d_u4-10 llc-0b0 1 4 0 4 0
l1d_u4-10 llc-0b1 1 4 0 4 0
l1d_u4-10 llc-0b2 1 4 0 4 0
l1d_u4-10 llc-0b3 1 4 0 4 0
l1d_u4-10 llc-0b4 1 4 0 4 0
l1d_u4-10 llc-0b5 1 4 0 4 0
l1d_u4-10 llc-0b6 1 4 0 4 0
l1d_u4-10 llc-0b7 1 4 0 4 0
l1d_u4-11 llc-0b0 1 4 0 4 0
l1d_u4-11 llc-0b1 1 4 0 4 0
l1d_u4-11 llc-0b2 1 4 0 4 0
l1d_u4-11 llc-0b3 1 4 0 4 0
l1d_u4-11 llc-0b4 1 4 0 4 0
l1d_u4-11 llc-0b5 1 4 0 4 0
l1d_u4-11 llc-0b6 1 4 0 4 0
l1d_u4-11 llc-0b7 1 4 0 4 0
l1d_u4-12 llc-0b0 1 4 0 4 0
l1d_u4-12 llc-0b1 1 4 0 4 0
l1d_u4-12 llc-0b2 1 4 0 4 0
l1d_u4-12 llc-0b3 1 4 0 4 0
l1d_u4-12 llc-0b4 1 4 0 4 0
l1d_u4-12 llc-0b5 1 4 0 4 0
l1d_u4-12 llc-0b6 1 4 0 4 0
l1d_u4-12 llc-0b7 1 4 0 4 0
l1d_u4-13 llc-0b0 1 4 0 4 0
l1d_u4-13 llc-0b1 1 4 0 4 0
l1d_u4-13 llc-0b2 1 4 0 4 0
l1d_u4-13 llc-0b3 1 4 0 4 0
l1d_u4-13 llc-0b4 1 4 0 4 0
l1d_u4-13 llc-0b5 1 4 0 4 0
l1d_u4-13 llc-0b6 1 4 0 4 0
l1d_u4-13 llc-0b7 1 4 0 4 0
l1d_u4-14 llc-0b0 1 4 0 4 0
l1d_u4-14 llc-0b1 1 4 0 4 0
l1d_u4-14 llc-0b2 1 4 0 4 0
l1d_u4-14 llc-0b3 1 4 0 4 0
l1d_u4-14 llc-0b4 1 4 0 4 0
l1d_u4-14 llc-0b5 1 4 0 4 0
l1d_u4-14 llc-0b6 1 4 0 4 0
l1d_u4-14 llc-0b7 1 4 0 4 0
l1d_u4-15 llc-0b0 1 4 0 4 0
l1d_u4-15 llc-0b1 1 4 0 4 0
l1d_u4-15 llc-0b2 1 4 0 4 0
l1d_u4-15 llc-0b3 1 4 0 4 0
l1d_u4-15 llc-0b4 1 4 0 4 0
l1d_u4-15 llc-0b5 1 4 0 4 0
l1d_u4-15 llc-0b6 1 4 0 4 0
l1d_u4-15 llc-0b7 1 4 0 4 0
l1i_u5-0 llc-0b0 1 5 0 5 0
l1i_u5-0 llc-0b1 1 5 0 5 0
l1i_u5-0 llc-0b2 1 5 0 5 0
l1i_u5-0 llc-0b3 1 5 0 5 0
l1i_u5-0 llc-0b4 1 5 0 5 0
l1i_u5-0 llc-0b5 1 5 0 5 0
l1i_u5-0 llc-0b6 1 5 0 5 0
l1i_u5-0 llc-0b7 1 5 0 5 0
l1i_u5-1 llc-0b0 1 5 0 5 0
l1i_u5-1 llc-0b1 1 5 0 5 0
l1i_u5-1 llc-0b2 1 5 0 5 0
l1i_u5-1 llc-0b3 1 5 0 5 0
l1i_u5-1 llc-0b4 1 5 0 5 0
l1i_u5-1 llc-0b5 1 5 0 5 0
l1i_u5-1 llc-0b6 1 5 0 5 0
l1i_u5-1 llc-0b7 1 5 0 5 0
l1i_u5-2 llc-0b0 1 5 0 5 0
l1i_u5-2 llc-0b1 1 5 0 5 0
l1i_u5-2 llc-0b2 1 5 0 5 0
l1i_u5-2 llc-0b3 1 5 0 5 0
l1i_u5-2 llc-0b4 1 5 0 5 0
l1i_u5-2 llc-0b5 1 5 0 5 0
l1i_u5-2 llc-0b6 1 5 0 5 0
l1i_u5-2 llc-0b7 1 5 0 5 0
l1i_u5-3 llc-0b0 1 5 0 5 0
l1i_u5-3 llc-0b1 1 5 0 5 0
l1i_u5-3 llc-0b2 1 5 0 5 0
l1i_u5-3 llc-0b3 1 5 0 5 0
l1i_u5-3 llc-0b4 1 5 0 5 0
l1i_u5-3 llc-0b5 1 5 0 5 0
l1i_u5-3 llc-0b6 1 5 0 5 0
l1i_u5-3 llc-0b7 1 5 0 5 0
l1i_u5-4 llc-0b0 1 5 0 5 0
l1i_u5-4 llc-0b1 1 5 0 5 0
l1i_u5-4 llc-0b2 1 5 0 5 0
l1i_u5-4 llc-0b3 1 5 0 5 0
l1i_u5-4 llc-0b4 1 5 0 5 0
l1i_u5-4 llc-0b5 1 5 0 5 0
l1i_u5-4 llc-0b6 1 5 0 5 0
l1i_u5-4 llc-0b7 1 5 0 5 0
l1i_u5-5 llc-0b0 1 5 0 5 0
l1i_u5-5 llc-0b1 1 5 0 5 0
l1i_u5-5 llc-0b2 1 5 0 5 0
l1i_u5-5 llc-0b3 1 5 0 5 0
l1i_u5-5 llc-0b4 1 5 0 5 0
l1i_u5-5 llc-0b5 1 5 0 5 0
l1i_u5-5 llc-0b6 1 5 0 5 0
l1i_u5-5 llc-0b7 1 5 0 5 0
l1i_u5-6 llc-0b0 1 5 0 5 0
l1i_u5-6 llc-0b1 1 5 0 5 0
l1i_u5-6 llc-0b2 1 5 0 5 0
l1i_u5-6 llc-0b3 1 5 0 5 0
l1i_u5-6 llc-0b4 1 5 0 5 0
l1i_u5-6 llc-0b5 1 5 0 5 0
l1i_u5-6 llc-0b6 1 5 0 5 0
l1i_u5-6 llc-0b7 1 5 0 5 0
l1i_u5-7 llc-0b0 1 5 0 5 0
l1i_u5-7 llc-0b1 1 5 0 5 0
l1i_u5-7 llc-0b2 1 5 0 5 0
l1i_u5-7 llc-0b3 1 5 0 5 0
l1i_u5-7 llc-0b4 1 5 0 5 0
l1i_u5-7 llc-0b5 1 5 0 5 0
l1i_u5-7 llc-0b6 1 5 0 5 0
l1i_u5-7 llc-0b7 1 5 0 5 0
l1i_u5-8 llc-0b0 1 5 0 5 0
l1i_u5-8 llc-0b1 1 5 0 5 0
l1i_u5-8 llc-0b2 1 5 0 5 0
l1i_u5-8 llc-0b3 1 5 0 5 0
l1i_u5-8 llc-0b4 1 5 0 5 0
l1i_u5-8 llc-0b5 1 5 0 5 0
l1i_u5-8 llc-0b6 1 5 0 5 0
l1i_u5-8 llc-0b7 1 5 0 5 0
l1i_u5-9 llc-0b0 1 5 0 5 0
l1i_u5-9 llc-0b1 1 5 0 5 0
l1i_u5-9 llc-0b2 1 5 0 5 0
l1i_u5-9 llc-0b3 1 5 0 5 0
l1i_u5-9 llc-0b4 1 5 0 5 0
l1i_u5-9 llc-0b5 1 5 0 5 0
l1i_u5-9 llc-0b6 1 5 0 5 0
l1i_u5-9 llc-0b7 1 5 0 5 0
l1i_u5-10 llc-0b0 1 5 0 5 0
l1i_u5-10 llc-0b1 1 5 0 5 0
l1i_u5-10 llc-0b2 1 5 0 5 0
l1i_u5-10 llc-0b3 1 5 0 5 0
l1i_u5-10 llc-0b4 1 5 0 5 0
l1i_u5-10 llc-0b5 1 5 0 5 0
l1i_u5-10 llc-0b6 1 5 0 5 0
l1i_u5-10 llc-0b7 1 5 0 5 0
l1i_u5-11 llc-0b0 1 5 0 5 0
l1i_u5-11 llc-0b1 1 5 0 5 0
l1i_u5-11 llc-0b2 1 5 0 5 0
l1i_u5-11 llc-0b3 1 5 0 5 0
l1i_u5-11 llc-0b4 1 5 0 5 0
l1i_u5-11 llc-0b5 1 5 0 5 0
l1i_u5-11 llc-0b6 1 5 0 5 0
l1i_u5-11 llc-0b7 1 5 0 5 0
l1i_u5-12 llc-0b0 1 5 0 5 0
l1i_u5-12 llc-0b1 1 5 0 5 0
l1i_u5-12 llc-0b2 1 5 0 5 0
l1i_u5-12 llc-0b3 1 5 0 5 0
l1i_u5-12 llc-0b4 1 5 0 5 0
l1i_u5-12 llc-0b5 1 5 0 5 0
l1i_u5-12 llc-0b6 1 5 0 5 0
l1i_u5-12 llc-0b7 1 5 0 5 0
l1i_u5-13 llc-0b0 1 5 0 5 0
l1i_u5-13 llc-0b1 1 5 0 5 0
l1i_u5-13 llc-0b2 1 5 0 5 0
l1i_u5-13 llc-0b3 1 5 0 5 0
l1i_u5-13 llc-0b4 1 5 0 5 0
l1i_u5-13 llc-0b5 1 5 0 5 0
l1i_u5-13 llc-0b6 1 5 0 5 0
l1i_u5-13 llc-0b7 1 5 0 5 0
l1i_u5-14 llc-0b0 1 5 0 5 0
l1i_u5-14 llc-0b1 1 5 0 5 0
l1i_u5-14 llc-0b2 1 5 0 5 0
l1i_u5-14 llc-0b3 1 5 0 5 0
l1i_u5-14 llc-0b4 1 5 0 5 0
l1i_u5-14 llc-0b5 1 5 0 5 0
l1i_u5-14 llc-0b6 1 5 0 5 0
l1i_u5-14 llc-0b7 1 5 0 5 0
l1i_u5-15 llc-0b0 1 5 0 5 0
l1i_u5-15 llc-0b1 1 5 0 5 0
l1i_u5-15 llc-0b2 1 5 0 5 0
l1i_u5-15 llc-0b3 1 5 0 5 0
l1i_u5-15 llc-0b4 1 5 0 5 0
l1i_u5-15 llc-0b5 1 5 0 5 0
l1i_u5-15 llc-0b6 1 5 0 5 0
l1i_u5-15 llc-0b7 1 5 0 5 0
l1d_u5-0 llc-0b0 1 5 0 5 0
l1d_u5-0 llc-0b1 1 5 0 5 0
l1d_u5-0 llc-0b2 1 5 0 5 0
l1d_u5-0 llc-0b3 1 5 0 5 0
l1d_u5-0 llc-0b4 1 5 0 5 0
l1d_u5-0 llc-0b5 1 5 0 5 0
l1d_u5-0 llc-0b6 1 5 0 5 0
l1d_u5-0 llc-0b7 1 5 0 5 0
l1d_u5-1 llc-0b0 1 5 0 5 0
l1d_u5-1 llc-0b1 1 5 0 5 0
l1d_u5-1 llc-0b2 1 5 0 5 0
l1d_u5-1 llc-0b3 1 5 0 5 0
l1d_u5-1 llc-0b4 1 5 0 5 0
l1d_u5-1 llc-0b5 1 5 0 5 0
l1d_u5-1 llc-0b6 1 5 0 5 0
l1d_u5-1 llc-0b7 1 5 0 5 0
l1d_u5-2 llc-0b0 1 5 0 5 0
l1d_u5-2 llc-0b1 1 5 0 5 0
l1d_u5-2 llc-0b2 1 5 0 5 0
l1d_u5-2 llc-0b3 1 5 0 5 0
l1d_u5-2 llc-0b4 1 5 0 5 0
l1d_u5-2 llc-0b5 1 5 0 5 0
l1d_u5-2 llc-0b6 1 5 0 5 0
l1d_u5-2 llc-0b7 1 5 0 5 0
l1d_u5-3 llc-0b0 1 5 0 5 0
l1d_u5-3 llc-0b1 1 5 0 5 0
l1d_u5-3 llc-0b2 1 5 0 5 0
l1d_u5-3 llc-0b3 1 5 0 5 0
l1d_u5-3 llc-0b4 1 5 0 5 0
l1d_u5-3 llc-0b5 1 5 0 5 0
l1d_u5-3 llc-0b6 1 5 0 5 0
l1d_u5-3 llc-0b7 1 5 0 5 0
l1d_u5-4 llc-0b0 1 5 0 5 0
l1d_u5-4 llc-0b1 1 5 0 5 0
l1d_u5-4 llc-0b2 1 5 0 5 0
l1d_u5-4 llc-0b3 1 5 0 5 0
l1d_u5-4 llc-0b4 1 5 0 5 0
l1d_u5-4 llc-0b5 1 5 0 5 0
l1d_u5-4 llc-0b6 1 5 0 5 0
l1d_u5-4 llc-0b7 1 5 0 5 0
l1d_u5-5 llc-0b0 1 5 0 5 0
l1d_u5-5 llc-0b1 1 5 0 5 0
l1d_u5-5 llc-0b2 1 5 0 5 0
l1d_u5-5 llc-0b3 1 5 0 5 0
l1d_u5-5 llc-0b4 1 5 0 5 0
l1d_u5-5 llc-0b5 1 5 0 5 0
l1d_u5-5 llc-0b6 1 5 0 5 0
l1d_u5-5 llc-0b7 1 5 0 5 0
l1d_u5-6 llc-0b0 1 5 0 5 0
l1d_u5-6 llc-0b1 1 5 0 5 0
l1d_u5-6 llc-0b2 1 5 0 5 0
l1d_u5-6 llc-0b3 1 5 0 5 0
l1d_u5-6 llc-0b4 1 5 0 5 0
l1d_u5-6 llc-0b5 1 5 0 5 0
l1d_u5-6 llc-0b6 1 5 0 5 0
l1d_u5-6 llc-0b7 1 5 0 5 0
l1d_u5-7 llc-0b0 1 5 0 5 0
l1d_u5-7 llc-0b1 1 5 0 5 0
l1d_u5-7 llc-0b2 1 5 0 5 0
l1d_u5-7 llc-0b3 1 5 0 5 0
l1d_u5-7 llc-0b4 1 5 0 5 0
l1d_u5-7 llc-0b5 1 5 0 5 0
l1d_u5-7 llc-0b6 1 5 0 5 0
l1d_u5-7 llc-0b7 1 5 0 5 0
l1d_u5-8 llc-0b0 1 5 0 5 0
l1d_u5-8 llc-0b1 1 5 0 5 0
l1d_u5-8 llc-0b2 1 5 0 5 0
l1d_u5-8 llc-0b3 1 5 0 5 0
l1d_u5-8 llc-0b4 1 5 0 5 0
l1d_u5-8 llc-0b5 1 5 0 5 0
l1d_u5-8 llc-0b6 1 5 0 5 0
l1d_u5-8 llc-0b7 1 5 0 5 0
l1d_u5-9 llc-0b0 1 5 0 5 0
l1d_u5-9 llc-0b1 1 5 0 5 0
l1d_u5-9 llc-0b2 1 5 0 5 0
l1d_u5-9 llc-0b3 1 5 0 5 0
l1d_u5-9 llc-0b4 1 5 0 5 0
l1d_u5-9 llc-0b5 1 5 0 5 0
l1d_u5-9 llc-0b6 1 5 0 5 0
l1d_u5-9 llc-0b7 1 5 0 5 0
l1d_u5-10 llc-0b0 1 5 0 5 0
l1d_u5-10 llc-0b1 1 5 0 5 0
l1d_u5-10 llc-0b2 1 5 0 5 0
l1d_u5-10 llc-0b3 1 5 0 5 0
l1d_u5-10 llc-0b4 1 5 0 5 0
l1d_u5-10 llc-0b5 1 5 0 5 0
l1d_u5-10 llc-0b6 1 5 0 5 0
l1d_u5-10 llc-0b7 1 5 0 5 0
l1d_u5-11 llc-0b0 1 5 0 5 0
l1d_u5-11 llc-0b1 1 5 0 5 0
l1d_u5-11 llc-0b2 1 5 0 5 0
l1d_u5-11 llc-0b3 1 5 0 5 0
l1d_u5-11 llc-0b4 1 5 0 5 0
l1d_u5-11 llc-0b5 1 5 0 5 0
l1d_u5-11 llc-0b6 1 5 0 5 0
l1d_u5-11 llc-0b7 1 5 0 5 0
l1d_u5-12 llc-0b0 1 5 0 5 0
l1d_u5-12 llc-0b1 1 5 0 5 0
l1d_u5-12 llc-0b2 1 5 0 5 0
l1d_u5-12 llc-0b3 1 5 0 5 0
l1d_u5-12 llc-0b4 1 5 0 5 0
l1d_u5-12 llc-0b5 1 5 0 5 0
l1d_u5-12 llc-0b6 1 5 0 5 0
l1d_u5-12 llc-0b7 1 5 0 5 0
l1d_u5-13 llc-0b0 1 5 0 5 0
l1d_u5-13 llc-0b1 1 5 0 5 0
l1d_u5-13 llc-0b2 1 5 0 5 0
l1d_u5-13 llc-0b3 1 5 0 5 0
l1d_u5-13 llc-0b4 1 5 0 5 0
l1d_u5-13 llc-0b5 1 5 0 5 0
l1d_u5-13 llc-0b6 1 5 0 5 0
l1d_u5-13 llc-0b7 1 5 0 5 0
l1d_u5-14 llc-0b0 1 5 0 5 0
l1d_u5-14 llc-0b1 1 5 0 5 0
l1d_u5-14 llc-0b2 1 5 0 5 0
l1d_u5-14 llc-0b3 1 5 0 5 0
l1d_u5-14 llc-0b4 1 5 0 5 0
l1d_u5-14 llc-0b5 1 5 0 5 0
l1d_u5-14 llc-0b6 1 5 0 5 0
l1d_u5-14 llc-0b7 1 5 0 5 0
l1d_u5-15 llc-0b0 1 5 0 5 0
l1d_u5-15 llc-0b1 1 5 0 5 0
l1d_u5-15 llc-0b2 1 5 0 5 0
l1d_u5-15 llc-0b3 1 5 0 5 0
l1d_u5-15 llc-0b4 1 5 0 5 0
l1d_u5-15 llc-0b5 1 5 0 5 0
l1d_u5-15 llc-0b6 1 5 0 5 0
l1d_u5-15 llc-0b7 1 5 0 5 0
l1i_u6-0 llc-0b0 1 6 0 6 0
l1i_u6-0 llc-0b1 1 6 0 6 0
l1i_u6-0 llc-0b2 1 6 0 6 0
l1i_u6-0 llc-0b3 1 6 0 6 0
l1i_u6-0 llc-0b4 1 6 0 6 0
l1i_u6-0 llc-0b5 1 6 0 6 0
l1i_u6-0 llc-0b6 1 6 0 6 0
l1i_u6-0 llc-0b7 1 6 0 6 0
l1i_u6-1 llc-0b0 1 6 0 6 0
l1i_u6-1 llc-0b1 1 6 0 6 0
l1i_u6-1 llc-0b2 1 6 0 6 0
l1i_u6-1 llc-0b3 1 6 0 6 0
l1i_u6-1 llc-0b4 1 6 0 6 0
l1i_u6-1 llc-0b5 1 6 0 6 0
l1i_u6-1 llc-0b6 1 6 0 6 0
l1i_u6-1 llc-0b7 1 6 0 6 0
l1i_u6-2 llc-0b0 1 6 0 6 0
l1i_u6-2 llc-0b1 1 6 0 6 0
l1i_u6-2 llc-0b2 1 6 0 6 0
l1i_u6-2 llc-0b3 1 6 0 6 0
l1i_u6-2 llc-0b4 1 6 0 6 0
l1i_u6-2 llc-0b5 1 6 0 6 0
l1i_u6-2 llc-0b6 1 6 0 6 0
l1i_u6-2 llc-0b7 1 6 0 6 0
l1i_u6-3 llc-0b0 1 6 0 6 0
l1i_u6-3 llc-0b1 1 6 0 6 0
l1i_u6-3 llc-0b2 1 6 0 6 0
l1i_u6-3 llc-0b3 1 6 0 6 0
l1i_u6-3 llc-0b4 1 6 0 6 0
l1i_u6-3 llc-0b5 1 6 0 6 0
l1i_u6-3 llc-0b6 1 6 0 6 0
l1i_u6-3 llc-0b7 1 6 0 6 0
l1i_u6-4 llc-0b0 1 6 0 6 0
l1i_u6-4 llc-0b1 1 6 0 6 0
l1i_u6-4 llc-0b2 1 6 0 6 0
l1i_u6-4 llc-0b3 1 6 0 6 0
l1i_u6-4 llc-0b4 1 6 0 6 0
l1i_u6-4 llc-0b5 1 6 0 6 0
l1i_u6-4 llc-0b6 1 6 0 6 0
l1i_u6-4 llc-0b7 1 6 0 6 0
l1i_u6-5 llc-0b0 1 6 0 6 0
l1i_u6-5 llc-0b1 1 6 0 6 0
l1i_u6-5 llc-0b2 1 6 0 6 0
l1i_u6-5 llc-0b3 1 6 0 6 0
l1i_u6-5 llc-0b4 1 6 0 6 0
l1i_u6-5 llc-0b5 1 6 0 6 0
l1i_u6-5 llc-0b6 1 6 0 6 0
l1i_u6-5 llc-0b7 1 6 0 6 0
l1i_u6-6 llc-0b0 1 6 0 6 0
l1i_u6-6 llc-0b1 1 6 0 6 0
l1i_u6-6 llc-0b2 1 6 0 6 0
l1i_u6-6 llc-0b3 1 6 0 6 0
l1i_u6-6 llc-0b4 1 6 0 6 0
l1i_u6-6 llc-0b5 1 6 0 6 0
l1i_u6-6 llc-0b6 1 6 0 6 0
l1i_u6-6 llc-0b7 1 6 0 6 0
l1i_u6-7 llc-0b0 1 6 0 6 0
l1i_u6-7 llc-0b1 1 6 0 6 0
l1i_u6-7 llc-0b2 1 6 0 6 0
l1i_u6-7 llc-0b3 1 6 0 6 0
l1i_u6-7 llc-0b4 1 6 0 6 0
l1i_u6-7 llc-0b5 1 6 0 6 0
l1i_u6-7 llc-0b6 1 6 0 6 0
l1i_u6-7 llc-0b7 1 6 0 6 0
l1i_u6-8 llc-0b0 1 6 0 6 0
l1i_u6-8 llc-0b1 1 6 0 6 0
l1i_u6-8 llc-0b2 1 6 0 6 0
l1i_u6-8 llc-0b3 1 6 0 6 0
l1i_u6-8 llc-0b4 1 6 0 6 0
l1i_u6-8 llc-0b5 1 6 0 6 0
l1i_u6-8 llc-0b6 1 6 0 6 0
l1i_u6-8 llc-0b7 1 6 0 6 0
l1i_u6-9 llc-0b0 1 6 0 6 0
l1i_u6-9 llc-0b1 1 6 0 6 0
l1i_u6-9 llc-0b2 1 6 0 6 0
l1i_u6-9 llc-0b3 1 6 0 6 0
l1i_u6-9 llc-0b4 1 6 0 6 0
l1i_u6-9 llc-0b5 1 6 0 6 0
l1i_u6-9 llc-0b6 1 6 0 6 0
l1i_u6-9 llc-0b7 1 6 0 6 0
l1i_u6-10 llc-0b0 1 6 0 6 0
l1i_u6-10 llc-0b1 1 6 0 6 0
l1i_u6-10 llc-0b2 1 6 0 6 0
l1i_u6-10 llc-0b3 1 6 0 6 0
l1i_u6-10 llc-0b4 1 6 0 6 0
l1i_u6-10 llc-0b5 1 6 0 6 0
l1i_u6-10 llc-0b6 1 6 0 6 0
l1i_u6-10 llc-0b7 1 6 0 6 0
l1i_u6-11 llc-0b0 1 6 0 6 0
l1i_u6-11 llc-0b1 1 6 0 6 0
l1i_u6-11 llc-0b2 1 6 0 6 0
l1i_u6-11 llc-0b3 1 6 0 6 0
l1i_u6-11 llc-0b4 1 6 0 6 0
l1i_u6-11 llc-0b5 1 6 0 6 0
l1i_u6-11 llc-0b6 1 6 0 6 0
l1i_u6-11 llc-0b7 1 6 0 6 0
l1i_u6-12 llc-0b0 1 6 0 6 0
l1i_u6-12 llc-0b1 1 6 0 6 0
l1i_u6-12 llc-0b2 1 6 0 6 0
l1i_u6-12 llc-0b3 1 6 0 6 0
l1i_u6-12 llc-0b4 1 6 0 6 0
l1i_u6-12 llc-0b5 1 6 0 6 0
l1i_u6-12 llc-0b6 1 6 0 6 0
l1i_u6-12 llc-0b7 1 6 0 6 0
l1i_u6-13 llc-0b0 1 6 0 6 0
l1i_u6-13 llc-0b1 1 6 0 6 0
l1i_u6-13 llc-0b2 1 6 0 6 0
l1i_u6-13 llc-0b3 1 6 0 6 0
l1i_u6-13 llc-0b4 1 6 0 6 0
l1i_u6-13 llc-0b5 1 6 0 6 0
l1i_u6-13 llc-0b6 1 6 0 6 0
l1i_u6-13 llc-0b7 1 6 0 6 0
l1i_u6-14 llc-0b0 1 6 0 6 0
l1i_u6-14 llc-0b1 1 6 0 6 0
l1i_u6-14 llc-0b2 1 6 0 6 0
l1i_u6-14 llc-0b3 1 6 0 6 0
l1i_u6-14 llc-0b4 1 6 0 6 0
l1i_u6-14 llc-0b5 1 6 0 6 0
l1i_u6-14 llc-0b6 1 6 0 6 0
l1i_u6-14 llc-0b7 1 6 0 6 0
l1i_u6-15 llc-0b0 1 6 0 6 0
l1i_u6-15 llc-0b1 1 6 0 6 0
l1i_u6-15 llc-0b2 1 6 0 6 0
l1i_u6-15 llc-0b3 1 6 0 6 0
l1i_u6-15 llc-0b4 1 6 0 6 0
l1i_u6-15 llc-0b5 1 6 0 6 0
l1i_u6-15 llc-0b6 1 6 0 6 0
l1i_u6-15 llc-0b7 1 6 0 6 0
l1d_u6-0 llc-0b0 1 6 0 6 0
l1d_u6-0 llc-0b1 1 6 0 6 0
l1d_u6-0 llc-0b2 1 6 0 6 0
l1d_u6-0 llc-0b3 1 6 0 6 0
l1d_u6-0 llc-0b4 1 6 0 6 0
l1d_u6-0 llc-0b5 1 6 0 6 0
l1d_u6-0 llc-0b6 1 6 0 6 0
l1d_u6-0 llc-0b7 1 6 0 6 0
l1d_u6-1 llc-0b0 1 6 0 6 0
l1d_u6-1 llc-0b1 1 6 0 6 0
l1d_u6-1 llc-0b2 1 6 0 6 0
l1d_u6-1 llc-0b3 1 6 0 6 0
l1d_u6-1 llc-0b4 1 6 0 6 0
l1d_u6-1 llc-0b5 1 6 0 6 0
l1d_u6-1 llc-0b6 1 6 0 6 0
l1d_u6-1 llc-0b7 1 6 0 6 0
l1d_u6-2 llc-0b0 1 6 0 6 0
l1d_u6-2 llc-0b1 1 6 0 6 0
l1d_u6-2 llc-0b2 1 6 0 6 0
l1d_u6-2 llc-0b3 1 6 0 6 0
l1d_u6-2 llc-0b4 1 6 0 6 0
l1d_u6-2 llc-0b5 1 6 0 6 0
l1d_u6-2 llc-0b6 1 6 0 6 0
l1d_u6-2 llc-0b7 1 6 0 6 0
l1d_u6-3 llc-0b0 1 6 0 6 0
l1d_u6-3 llc-0b1 1 6 0 6 0
l1d_u6-3 llc-0b2 1 6 0 6 0
l1d_u6-3 llc-0b3 1 6 0 6 0
l1d_u6-3 llc-0b4 1 6 0 6 0
l1d_u6-3 llc-0b5 1 6 0 6 0
l1d_u6-3 llc-0b6 1 6 0 6 0
l1d_u6-3 llc-0b7 1 6 0 6 0
l1d_u6-4 llc-0b0 1 6 0 6 0
l1d_u6-4 llc-0b1 1 6 0 6 0
l1d_u6-4 llc-0b2 1 6 0 6 0
l1d_u6-4 llc-0b3 1 6 0 6 0
l1d_u6-4 llc-0b4 1 6 0 6 0
l1d_u6-4 llc-0b5 1 6 0 6 0
l1d_u6-4 llc-0b6 1 6 0 6 0
l1d_u6-4 llc-0b7 1 6 0 6 0
l1d_u6-5 llc-0b0 1 6 0 6 0
l1d_u6-5 llc-0b1 1 6 0 6 0
l1d_u6-5 llc-0b2 1 6 0 6 0
l1d_u6-5 llc-0b3 1 6 0 6 0
l1d_u6-5 llc-0b4 1 6 0 6 0
l1d_u6-5 llc-0b5 1 6 0 6 0
l1d_u6-5 llc-0b6 1 6 0 6 0
l1d_u6-5 llc-0b7 1 6 0 6 0
l1d_u6-6 llc-0b0 1 6 0 6 0
l1d_u6-6 llc-0b1 1 6 0 6 0
l1d_u6-6 llc-0b2 1 6 0 6 0
l1d_u6-6 llc-0b3 1 6 0 6 0
l1d_u6-6 llc-0b4 1 6 0 6 0
l1d_u6-6 llc-0b5 1 6 0 6 0
l1d_u6-6 llc-0b6 1 6 0 6 0
l1d_u6-6 llc-0b7 1 6 0 6 0
l1d_u6-7 llc-0b0 1 6 0 6 0
l1d_u6-7 llc-0b1 1 6 0 6 0
l1d_u6-7 llc-0b2 1 6 0 6 0
l1d_u6-7 llc-0b3 1 6 0 6 0
l1d_u6-7 llc-0b4 1 6 0 6 0
l1d_u6-7 llc-0b5 1 6 0 6 0
l1d_u6-7 llc-0b6 1 6 0 6 0
l1d_u6-7 llc-0b7 1 6 0 6 0
l1d_u6-8 llc-0b0 1 6 0 6 0
l1d_u6-8 llc-0b1 1 6 0 6 0
l1d_u6-8 llc-0b2 1 6 0 6 0
l1d_u6-8 llc-0b3 1 6 0 6 0
l1d_u6-8 llc-0b4 1 6 0 6 0
l1d_u6-8 llc-0b5 1 6 0 6 0
l1d_u6-8 llc-0b6 1 6 0 6 0
l1d_u6-8 llc-0b7 1 6 0 6 0
l1d_u6-9 llc-0b0 1 6 0 6 0
l1d_u6-9 llc-0b1 1 6 0 6 0
l1d_u6-9 llc-0b2 1 6 0 6 0
l1d_u6-9 llc-0b3 1 6 0 6 0
l1d_u6-9 llc-0b4 1 6 0 6 0
l1d_u6-9 llc-0b5 1 6 0 6 0
l1d_u6-9 llc-0b6 1 6 0 6 0
l1d_u6-9 llc-0b7 1 6 0 6 0
l1d_u6-10 llc-0b0 1 6 0 6 0
l1d_u6-10 llc-0b1 1 6 0 6 0
l1d_u6-10 llc-0b2 1 6 0 6 0
l1d_u6-10 llc-0b3 1 6 0 6 0
l1d_u6-10 llc-0b4 1 6 0 6 0
l1d_u6-10 llc-0b5 1 6 0 6 0
l1d_u6-10 llc-0b6 1 6 0 6 0
l1d_u6-10 llc-0b7 1 6 0 6 0
l1d_u6-11 llc-0b0 1 6 0 6 0
l1d_u6-11 llc-0b1 1 6 0 6 0
l1d_u6-11 llc-0b2 1 6 0 6 0
l1d_u6-11 llc-0b3 1 6 0 6 0
l1d_u6-11 llc-0b4 1 6 0 6 0
l1d_u6-11 llc-0b5 1 6 0 6 0
l1d_u6-11 llc-0b6 1 6 0 6 0
l1d_u6-11 llc-0b7 1 6 0 6 0
l1d_u6-12 llc-0b0 1 6 0 6 0
l1d_u6-12 llc-0b1 1 6 0 6 0
l1d_u6-12 llc-0b2 1 6 0 6 0
l1d_u6-12 llc-0b3 1 6 0 6 0
l1d_u6-12 llc-0b4 1 6 0 6 0
l1d_u6-12 llc-0b5 1 6 0 6 0
l1d_u6-12 llc-0b6 1 6 0 6 0
l1d_u6-12 llc-0b7 1 6 0 6 0
l1d_u6-13 llc-0b0 1 6 0 6 0
l1d_u6-13 llc-0b1 1 6 0 6 0
l1d_u6-13 llc-0b2 1 6 0 6 0
l1d_u6-13 llc-0b3 1 6 0 6 0
l1d_u6-13 llc-0b4 1 6 0 6 0
l1d_u6-13 llc-0b5 1 6 0 6 0
l1d_u6-13 llc-0b6 1 6 0 6 0
l1d_u6-13 llc-0b7 1 6 0 6 0
l1d_u6-14 llc-0b0 1 6 0 6 0
l1d_u6-14 llc-0b1 1 6 0 6 0
l1d_u6-14 llc-0b2 1 6 0 6 0
l1d_u6-14 llc-0b3 1 6 0 6 0
l1d_u6-14 llc-0b4 1 6 0 6 0
l1d_u6-14 llc-0b5 1 6 0 6 0
l1d_u6-14 llc-0b6 1 6 0 6 0
l1d_u6-14 llc-0b7 1 6 0 6 0
l1d_u6-15 llc-0b0 1 6 0 6 0
l1d_u6-15 llc-0b1 1 6 0 6 0
l1d_u6-15 llc-0b2 1 6 0 6 0
l1d_u6-15 llc-0b3 1 6 0 6 0
l1d_u6-15 llc-0b4 1 6 0 6 0
l1d_u6-15 llc-0b5 1 6 0 6 0
l1d_u6-15 llc-0b6 1 6 0 6 0
l1d_u6-15 llc-0b7 1 6 0 6 0
l1i_u7-0 llc-0b0 1 7 0 7 0
l1i_u7-0 llc-0b1 1 7 0 7 0
l1i_u7-0 llc-0b2 1 7 0 7 0
l1i_u7-0 llc-0b3 1 7 0 7 0
l1i_u7-0 llc-0b4 1 7 0 7 0
l1i_u7-0 llc-0b5 1 7 0 7 0
l1i_u7-0 llc-0b6 1 7 0 7 0
l1i_u7-0 llc-0b7 1 7 0 7 0
l1i_u7-1 llc-0b0 1 7 0 7 0
l1i_u7-1 llc-0b1 1 7 0 7 0
l1i_u7-1 llc-0b2 1 7 0 7 0
l1i_u7-1 llc-0b3 1 7 0 7 0
l1i_u7-1 llc-0b4 1 7 0 7 0
l1i_u7-1 llc-0b5 1 7 0 7 0
l1i_u7-1 llc-0b6 1 7 0 7 0
l1i_u7-1 llc-0b7 1 7 0 7 0
l1i_u7-2 llc-0b0 1 7 0 7 0
l1i_u7-2 llc-0b1 1 7 0 7 0
l1i_u7-2 llc-0b2 1 7 0 7 0
l1i_u7-2 llc-0b3 1 7 0 7 0
l1i_u7-2 llc-0b4 1 7 0 7 0
l1i_u7-2 llc-0b5 1 7 0 7 0
l1i_u7-2 llc-0b6 1 7 0 7 0
l1i_u7-2 llc-0b7 1 7 0 7 0
l1i_u7-3 llc-0b0 1 7 0 7 0
l1i_u7-3 llc-0b1 1 7 0 7 0
l1i_u7-3 llc-0b2 1 7 0 7 0
l1i_u7-3 llc-0b3 1 7 0 7 0
l1i_u7-3 llc-0b4 1 7 0 7 0
l1i_u7-3 llc-0b5 1 7 0 7 0
l1i_u7-3 llc-0b6 1 7 0 7 0
l1i_u7-3 llc-0b7 1 7 0 7 0
l1i_u7-4 llc-0b0 1 7 0 7 0
l1i_u7-4 llc-0b1 1 7 0 7 0
l1i_u7-4 llc-0b2 1 7 0 7 0
l1i_u7-4 llc-0b3 1 7 0 7 0
l1i_u7-4 llc-0b4 1 7 0 7 0
l1i_u7-4 llc-0b5 1 7 0 7 0
l1i_u7-4 llc-0b6 1 7 0 7 0
l1i_u7-4 llc-0b7 1 7 0 7 0
l1i_u7-5 llc-0b0 1 7 0 7 0
l1i_u7-5 llc-0b1 1 7 0 7 0
l1i_u7-5 llc-0b2 1 7 0 7 0
l1i_u7-5 llc-0b3 1 7 0 7 0
l1i_u7-5 llc-0b4 1 7 0 7 0
l1i_u7-5 llc-0b5 1 7 0 7 0
l1i_u7-5 llc-0b6 1 7 0 7 0
l1i_u7-5 llc-0b7 1 7 0 7 0
l1i_u7-6 llc-0b0 1 7 0 7 0
l1i_u7-6 llc-0b1 1 7 0 7 0
l1i_u7-6 llc-0b2 1 7 0 7 0
l1i_u7-6 llc-0b3 1 7 0 7 0
l1i_u7-6 llc-0b4 1 7 0 7 0
l1i_u7-6 llc-0b5 1 7 0 7 0
l1i_u7-6 llc-0b6 1 7 0 7 0
l1i_u7-6 llc-0b7 1 7 0 7 0
l1i_u7-7 llc-0b0 1 7 0 7 0
l1i_u7-7 llc-0b1 1 7 0 7 0
l1i_u7-7 llc-0b2 1 7 0 7 0
l1i_u7-7 llc-0b3 1 7 0 7 0
l1i_u7-7 llc-0b4 1 7 0 7 0
l1i_u7-7 llc-0b5 1 7 0 7 0
l1i_u7-7 llc-0b6 1 7 0 7 0
l1i_u7-7 llc-0b7 1 7 0 7 0
l1i_u7-8 llc-0b0 1 7 0 7 0
l1i_u7-8 llc-0b1 1 7 0 7 0
l1i_u7-8 llc-0b2 1 7 0 7 0
l1i_u7-8 llc-0b3 1 7 0 7 0
l1i_u7-8 llc-0b4 1 7 0 7 0
l1i_u7-8 llc-0b5 1 7 0 7 0
l1i_u7-8 llc-0b6 1 7 0 7 0
l1i_u7-8 llc-0b7 1 7 0 7 0
l1i_u7-9 llc-0b0 1 7 0 7 0
l1i_u7-9 llc-0b1 1 7 0 7 0
l1i_u7-9 llc-0b2 1 7 0 7 0
l1i_u7-9 llc-0b3 1 7 0 7 0
l1i_u7-9 llc-0b4 1 7 0 7 0
l1i_u7-9 llc-0b5 1 7 0 7 0
l1i_u7-9 llc-0b6 1 7 0 7 0
l1i_u7-9 llc-0b7 1 7 0 7 0
l1i_u7-10 llc-0b0 1 7 0 7 0
l1i_u7-10 llc-0b1 1 7 0 7 0
l1i_u7-10 llc-0b2 1 7 0 7 0
l1i_u7-10 llc-0b3 1 7 0 7 0
l1i_u7-10 llc-0b4 1 7 0 7 0
l1i_u7-10 llc-0b5 1 7 0 7 0
l1i_u7-10 llc-0b6 1 7 0 7 0
l1i_u7-10 llc-0b7 1 7 0 7 0
l1i_u7-11 llc-0b0 1 7 0 7 0
l1i_u7-11 llc-0b1 1 7 0 7 0
l1i_u7-11 llc-0b2 1 7 0 7 0
l1i_u7-11 llc-0b3 1 7 0 7 0
l1i_u7-11 llc-0b4 1 7 0 7 0
l1i_u7-11 llc-0b5 1 7 0 7 0
l1i_u7-11 llc-0b6 1 7 0 7 0
l1i_u7-11 llc-0b7 1 7 0 7 0
l1i_u7-12 llc-0b0 1 7 0 7 0
l1i_u7-12 llc-0b1 1 7 0 7 0
l1i_u7-12 llc-0b2 1 7 0 7 0
l1i_u7-12 llc-0b3 1 7 0 7 0
l1i_u7-12 llc-0b4 1 7 0 7 0
l1i_u7-12 llc-0b5 1 7 0 7 0
l1i_u7-12 llc-0b6 1 7 0 7 0
l1i_u7-12 llc-0b7 1 7 0 7 0
l1i_u7-13 llc-0b0 1 7 0 7 0
l1i_u7-13 llc-0b1 1 7 0 7 0
l1i_u7-13 llc-0b2 1 7 0 7 0
l1i_u7-13 llc-0b3 1 7 0 7 0
l1i_u7-13 llc-0b4 1 7 0 7 0
l1i_u7-13 llc-0b5 1 7 0 7 0
l1i_u7-13 llc-0b6 1 7 0 7 0
l1i_u7-13 llc-0b7 1 7 0 7 0
l1i_u7-14 llc-0b0 1 7 0 7 0
l1i_u7-14 llc-0b1 1 7 0 7 0
l1i_u7-14 llc-0b2 1 7 0 7 0
l1i_u7-14 llc-0b3 1 7 0 7 0
l1i_u7-14 llc-0b4 1 7 0 7 0
l1i_u7-14 llc-0b5 1 7 0 7 0
l1i_u7-14 llc-0b6 1 7 0 7 0
l1i_u7-14 llc-0b7 1 7 0 7 0
l1i_u7-15 llc-0b0 1 7 0 7 0
l1i_u7-15 llc-0b1 1 7 0 7 0
l1i_u7-15 llc-0b2 1 7 0 7 0
l1i_u7-15 llc-0b3 1 7 0 7 0
l1i_u7-15 llc-0b4 1 7 0 7 0
l1i_u7-15 llc-0b5 1 7 0 7 0
l1i_u7-15 llc-0b6 1 7 0 7 0
l1i_u7-15 llc-0b7 1 7 0 7 0
l1d_u7-0 llc-0b0 1 7 0 7 0
l1d_u7-0 llc-0b1 1 7 0 7 0
l1d_u7-0 llc-0b2 1 7 0 7 0
l1d_u7-0 llc-0b3 1 7 0 7 0
l1d_u7-0 llc-0b4 1 7 0 7 0
l1d_u7-0 llc-0b5 1 7 0 7 0
l1d_u7-0 llc-0b6 1 7 0 7 0
l1d_u7-0 llc-0b7 1 7 0 7 0
l1d_u7-1 llc-0b0 1 7 0 7 0
l1d_u7-1 llc-0b1 1 7 0 7 0
l1d_u7-1 llc-0b2 1 7 0 7 0
l1d_u7-1 llc-0b3 1 7 0 7 0
l1d_u7-1 llc-0b4 1 7 0 7 0
l1d_u7-1 llc-0b5 1 7 0 7 0
l1d_u7-1 llc-0b6 1 7 0 7 0
l1d_u7-1 llc-0b7 1 7 0 7 0
l1d_u7-2 llc-0b0 1 7 0 7 0
l1d_u7-2 llc-0b1 1 7 0 7 0
l1d_u7-2 llc-0b2 1 7 0 7 0
l1d_u7-2 llc-0b3 1 7 0 7 0
l1d_u7-2 llc-0b4 1 7 0 7 0
l1d_u7-2 llc-0b5 1 7 0 7 0
l1d_u7-2 llc-0b6 1 7 0 7 0
l1d_u7-2 llc-0b7 1 7 0 7 0
l1d_u7-3 llc-0b0 1 7 0 7 0
l1d_u7-3 llc-0b1 1 7 0 7 0
l1d_u7-3 llc-0b2 1 7 0 7 0
l1d_u7-3 llc-0b3 1 7 0 7 0
l1d_u7-3 llc-0b4 1 7 0 7 0
l1d_u7-3 llc-0b5 1 7 0 7 0
l1d_u7-3 llc-0b6 1 7 0 7 0
l1d_u7-3 llc-0b7 1 7 0 7 0
l1d_u7-4 llc-0b0 1 7 0 7 0
l1d_u7-4 llc-0b1 1 7 0 7 0
l1d_u7-4 llc-0b2 1 7 0 7 0
l1d_u7-4 llc-0b3 1 7 0 7 0
l1d_u7-4 llc-0b4 1 7 0 7 0
l1d_u7-4 llc-0b5 1 7 0 7 0
l1d_u7-4 llc-0b6 1 7 0 7 0
l1d_u7-4 llc-0b7 1 7 0 7 0
l1d_u7-5 llc-0b0 1 7 0 7 0
l1d_u7-5 llc-0b1 1 7 0 7 0
l1d_u7-5 llc-0b2 1 7 0 7 0
l1d_u7-5 llc-0b3 1 7 0 7 0
l1d_u7-5 llc-0b4 1 7 0 7 0
l1d_u7-5 llc-0b5 1 7 0 7 0
l1d_u7-5 llc-0b6 1 7 0 7 0
l1d_u7-5 llc-0b7 1 7 0 7 0
l1d_u7-6 llc-0b0 1 7 0 7 0
l1d_u7-6 llc-0b1 1 7 0 7 0
l1d_u7-6 llc-0b2 1 7 0 7 0
l1d_u7-6 llc-0b3 1 7 0 7 0
l1d_u7-6 llc-0b4 1 7 0 7 0
l1d_u7-6 llc-0b5 1 7 0 7 0
l1d_u7-6 llc-0b6 1 7 0 7 0
l1d_u7-6 llc-0b7 1 7 0 7 0
l1d_u7-7 llc-0b0 1 7 0 7 0
l1d_u7-7 llc-0b1 1 7 0 7 0
l1d_u7-7 llc-0b2 1 7 0 7 0
l1d_u7-7 llc-0b3 1 7 0 7 0
l1d_u7-7 llc-0b4 1 7 0 7 0
l1d_u7-7 llc-0b5 1 7 0 7 0
l1d_u7-7 llc-0b6 1 7 0 7 0
l1d_u7-7 llc-0b7 1 7 0 7 0
l1d_u7-8 llc-0b0 1 7 0 7 0
l1d_u7-8 llc-0b1 1 7 0 7 0
l1d_u7-8 llc-0b2 1 7 0 7 0
l1d_u7-8 llc-0b3 1 7 0 7 0
l1d_u7-8 llc-0b4 1 7 0 7 0
l1d_u7-8 llc-0b5 1 7 0 7 0
l1d_u7-8 llc-0b6 1 7 0 7 0
l1d_u7-8 llc-0b7 1 7 0 7 0
l1d_u7-9 llc-0b0 1 7 0 7 0
l1d_u7-9 llc-0b1 1 7 0 7 0
l1d_u7-9 llc-0b2 1 7 0 7 0
l1d_u7-9 llc-0b3 1 7 0 7 0
l1d_u7-9 llc-0b4 1 7 0 7 0
l1d_u7-9 llc-0b5 1 7 0 7 0
l1d_u7-9 llc-0b6 1 7 0 7 0
l1d_u7-9 llc-0b7 1 7 0 7 0
l1d_u7-10 llc-0b0 1 7 0 7 0
l1d_u7-10 llc-0b1 1 7 0 7 0
l1d_u7-10 llc-0b2 1 7 0 7 0
l1d_u7-10 llc-0b3 1 7 0 7 0
l1d_u7-10 llc-0b4 1 7 0 7 0
l1d_u7-10 llc-0b5 1 7 0 7 0
l1d_u7-10 llc-0b6 1 7 0 7 0
l1d_u7-10 llc-0b7 1 7 0 7 0
l1d_u7-11 llc-0b0 1 7 0 7 0
l1d_u7-11 llc-0b1 1 7 0 7 0
l1d_u7-11 llc-0b2 1 7 0 7 0
l1d_u7-11 llc-0b3 1 7 0 7 0
l1d_u7-11 llc-0b4 1 7 0 7 0
l1d_u7-11 llc-0b5 1 7 0 7 0
l1d_u7-11 llc-0b6 1 7 0 7 0
l1d_u7-11 llc-0b7 1 7 0 7 0
l1d_u7-12 llc-0b0 1 7 0 7 0
l1d_u7-12 llc-0b1 1 7 0 7 0
l1d_u7-12 llc-0b2 1 7 0 7 0
l1d_u7-12 llc-0b3 1 7 0 7 0
l1d_u7-12 llc-0b4 1 7 0 7 0
l1d_u7-12 llc-0b5 1 7 0 7 0
l1d_u7-12 llc-0b6 1 7 0 7 0
l1d_u7-12 llc-0b7 1 7 0 7 0
l1d_u7-13 llc-0b0 1 7 0 7 0
l1d_u7-13 llc-0b1 1 7 0 7 0
l1d_u7-13 llc-0b2 1 7 0 7 0
l1d_u7-13 llc-0b3 1 7 0 7 0
l1d_u7-13 llc-0b4 1 7 0 7 0
l1d_u7-13 llc-0b5 1 7 0 7 0
l1d_u7-13 llc-0b6 1 7 0 7 0
l1d_u7-13 llc-0b7 1 7 0 7 0
l1d_u7-14 llc-0b0 1 7 0 7 0
l1d_u7-14 llc-0b1 1 7 0 7 0
l1d_u7-14 llc-0b2 1 7 0 7 0
l1d_u7-14 llc-0b3 1 7 0 7 0
l1d_u7-14 llc-0b4 1 7 0 7 0
l1d_u7-14 llc-0b5 1 7 0 7 0
l1d_u7-14 llc-0b6 1 7 0 7 0
l1d_u7-14 llc-0b7 1 7 0 7 0
l1d_u7-15 llc-0b0 1 7 0 7 0
l1d_u7-15 llc-0b1 1 7 0 7 0
l1d_u7-15 llc-0b2 1 7 0 7 0
l1d_u7-15 llc-0b3 1 7 0 7 0
l1d_u7-15 llc-0b4 1 7 0 7 0
l1d_u7-15 llc-0b5 1 7 0 7 0
l1d_u7-15 llc-0b6 1 7 0 7 0
l1d_u7-15 llc-0b7 1 7 0 7 0
llc-0b0 mem-0 0 0
llc-0b1 mem-0 0 0
llc-0b2 mem-0 0 0
llc-0b3 mem-0 0 0
llc-0b4 mem-0 0 0
llc-0b5 mem-0 0 0
llc-0b6 mem-0 0 0
llc-0b7 mem-0 0 0
