4 2 2
l1i_u0-0 llc-0b0 1 0 0 0 0
l1i_u0-0 llc-0b1 1 0 0 1 0
l1i_u0-0 llc-0b2 1 0 0 2 0
l1i_u0-0 llc-0b3 1 0 0 3 0
l1i_u0-1 llc-0b0 1 0 0 0 0
l1i_u0-1 llc-0b1 1 0 0 1 0
l1i_u0-1 llc-0b2 1 0 0 2 0
l1i_u0-1 llc-0b3 1 0 0 3 0
l1i_u0-2 llc-0b0 1 0 0 0 0
l1i_u0-2 llc-0b1 1 0 0 1 0
l1i_u0-2 llc-0b2 1 0 0 2 0
l1i_u0-2 llc-0b3 1 0 0 3 0
l1i_u0-3 llc-0b0 1 0 0 0 0
l1i_u0-3 llc-0b1 1 0 0 1 0
l1i_u0-3 llc-0b2 1 0 0 2 0
l1i_u0-3 llc-0b3 1 0 0 3 0
l1i_u0-4 llc-0b0 1 0 0 0 0
l1i_u0-4 llc-0b1 1 0 0 1 0
l1i_u0-4 llc-0b2 1 0 0 2 0
l1i_u0-4 llc-0b3 1 0 0 3 0
l1i_u0-5 llc-0b0 1 0 0 0 0
l1i_u0-5 llc-0b1 1 0 0 1 0
l1i_u0-5 llc-0b2 1 0 0 2 0
l1i_u0-5 llc-0b3 1 0 0 3 0
l1i_u0-6 llc-0b0 1 0 0 0 0
l1i_u0-6 llc-0b1 1 0 0 1 0
l1i_u0-6 llc-0b2 1 0 0 2 0
l1i_u0-6 llc-0b3 1 0 0 3 0
l1i_u0-7 llc-0b0 1 0 0 0 0
l1i_u0-7 llc-0b1 1 0 0 1 0
l1i_u0-7 llc-0b2 1 0 0 2 0
l1i_u0-7 llc-0b3 1 0 0 3 0
l1i_u0-8 llc-0b0 1 0 0 0 0
l1i_u0-8 llc-0b1 1 0 0 1 0
l1i_u0-8 llc-0b2 1 0 0 2 0
l1i_u0-8 llc-0b3 1 0 0 3 0
l1i_u0-9 llc-0b0 1 0 0 0 0
l1i_u0-9 llc-0b1 1 0 0 1 0
l1i_u0-9 llc-0b2 1 0 0 2 0
l1i_u0-9 llc-0b3 1 0 0 3 0
l1i_u0-10 llc-0b0 1 0 0 0 0
l1i_u0-10 llc-0b1 1 0 0 1 0
l1i_u0-10 llc-0b2 1 0 0 2 0
l1i_u0-10 llc-0b3 1 0 0 3 0
l1i_u0-11 llc-0b0 1 0 0 0 0
l1i_u0-11 llc-0b1 1 0 0 1 0
l1i_u0-11 llc-0b2 1 0 0 2 0
l1i_u0-11 llc-0b3 1 0 0 3 0
l1i_u0-12 llc-0b0 1 0 0 0 0
l1i_u0-12 llc-0b1 1 0 0 1 0
l1i_u0-12 llc-0b2 1 0 0 2 0
l1i_u0-12 llc-0b3 1 0 0 3 0
l1i_u0-13 llc-0b0 1 0 0 0 0
l1i_u0-13 llc-0b1 1 0 0 1 0
l1i_u0-13 llc-0b2 1 0 0 2 0
l1i_u0-13 llc-0b3 1 0 0 3 0
l1i_u0-14 llc-0b0 1 0 0 0 0
l1i_u0-14 llc-0b1 1 0 0 1 0
l1i_u0-14 llc-0b2 1 0 0 2 0
l1i_u0-14 llc-0b3 1 0 0 3 0
l1i_u0-15 llc-0b0 1 0 0 0 0
l1i_u0-15 llc-0b1 1 0 0 1 0
l1i_u0-15 llc-0b2 1 0 0 2 0
l1i_u0-15 llc-0b3 1 0 0 3 0
l1d_u0-0 llc-0b0 1 0 0 0 0
l1d_u0-0 llc-0b1 1 0 0 1 0
l1d_u0-0 llc-0b2 1 0 0 2 0
l1d_u0-0 llc-0b3 1 0 0 3 0
l1d_u0-1 llc-0b0 1 0 0 0 0
l1d_u0-1 llc-0b1 1 0 0 1 0
l1d_u0-1 llc-0b2 1 0 0 2 0
l1d_u0-1 llc-0b3 1 0 0 3 0
l1d_u0-2 llc-0b0 1 0 0 0 0
l1d_u0-2 llc-0b1 1 0 0 1 0
l1d_u0-2 llc-0b2 1 0 0 2 0
l1d_u0-2 llc-0b3 1 0 0 3 0
l1d_u0-3 llc-0b0 1 0 0 0 0
l1d_u0-3 llc-0b1 1 0 0 1 0
l1d_u0-3 llc-0b2 1 0 0 2 0
l1d_u0-3 llc-0b3 1 0 0 3 0
l1d_u0-4 llc-0b0 1 0 0 0 0
l1d_u0-4 llc-0b1 1 0 0 1 0
l1d_u0-4 llc-0b2 1 0 0 2 0
l1d_u0-4 llc-0b3 1 0 0 3 0
l1d_u0-5 llc-0b0 1 0 0 0 0
l1d_u0-5 llc-0b1 1 0 0 1 0
l1d_u0-5 llc-0b2 1 0 0 2 0
l1d_u0-5 llc-0b3 1 0 0 3 0
l1d_u0-6 llc-0b0 1 0 0 0 0
l1d_u0-6 llc-0b1 1 0 0 1 0
l1d_u0-6 llc-0b2 1 0 0 2 0
l1d_u0-6 llc-0b3 1 0 0 3 0
l1d_u0-7 llc-0b0 1 0 0 0 0
l1d_u0-7 llc-0b1 1 0 0 1 0
l1d_u0-7 llc-0b2 1 0 0 2 0
l1d_u0-7 llc-0b3 1 0 0 3 0
l1d_u0-8 llc-0b0 1 0 0 0 0
l1d_u0-8 llc-0b1 1 0 0 1 0
l1d_u0-8 llc-0b2 1 0 0 2 0
l1d_u0-8 llc-0b3 1 0 0 3 0
l1d_u0-9 llc-0b0 1 0 0 0 0
l1d_u0-9 llc-0b1 1 0 0 1 0
l1d_u0-9 llc-0b2 1 0 0 2 0
l1d_u0-9 llc-0b3 1 0 0 3 0
l1d_u0-10 llc-0b0 1 0 0 0 0
l1d_u0-10 llc-0b1 1 0 0 1 0
l1d_u0-10 llc-0b2 1 0 0 2 0
l1d_u0-10 llc-0b3 1 0 0 3 0
l1d_u0-11 llc-0b0 1 0 0 0 0
l1d_u0-11 llc-0b1 1 0 0 1 0
l1d_u0-11 llc-0b2 1 0 0 2 0
l1d_u0-11 llc-0b3 1 0 0 3 0
l1d_u0-12 llc-0b0 1 0 0 0 0
l1d_u0-12 llc-0b1 1 0 0 1 0
l1d_u0-12 llc-0b2 1 0 0 2 0
l1d_u0-12 llc-0b3 1 0 0 3 0
l1d_u0-13 llc-0b0 1 0 0 0 0
l1d_u0-13 llc-0b1 1 0 0 1 0
l1d_u0-13 llc-0b2 1 0 0 2 0
l1d_u0-13 llc-0b3 1 0 0 3 0
l1d_u0-14 llc-0b0 1 0 0 0 0
l1d_u0-14 llc-0b1 1 0 0 1 0
l1d_u0-14 llc-0b2 1 0 0 2 0
l1d_u0-14 llc-0b3 1 0 0 3 0
l1d_u0-15 llc-0b0 1 0 0 0 0
l1d_u0-15 llc-0b1 1 0 0 1 0
l1d_u0-15 llc-0b2 1 0 0 2 0
l1d_u0-15 llc-0b3 1 0 0 3 0
l1i_u1-0 llc-0b0 1 1 0 0 0
l1i_u1-0 llc-0b1 1 1 0 1 0
l1i_u1-0 llc-0b2 1 1 0 2 0
l1i_u1-0 llc-0b3 1 1 0 3 0
l1i_u1-1 llc-0b0 1 1 0 0 0
l1i_u1-1 llc-0b1 1 1 0 1 0
l1i_u1-1 llc-0b2 1 1 0 2 0
l1i_u1-1 llc-0b3 1 1 0 3 0
l1i_u1-2 llc-0b0 1 1 0 0 0
l1i_u1-2 llc-0b1 1 1 0 1 0
l1i_u1-2 llc-0b2 1 1 0 2 0
l1i_u1-2 llc-0b3 1 1 0 3 0
l1i_u1-3 llc-0b0 1 1 0 0 0
l1i_u1-3 llc-0b1 1 1 0 1 0
l1i_u1-3 llc-0b2 1 1 0 2 0
l1i_u1-3 llc-0b3 1 1 0 3 0
l1i_u1-4 llc-0b0 1 1 0 0 0
l1i_u1-4 llc-0b1 1 1 0 1 0
l1i_u1-4 llc-0b2 1 1 0 2 0
l1i_u1-4 llc-0b3 1 1 0 3 0
l1i_u1-5 llc-0b0 1 1 0 0 0
l1i_u1-5 llc-0b1 1 1 0 1 0
l1i_u1-5 llc-0b2 1 1 0 2 0
l1i_u1-5 llc-0b3 1 1 0 3 0
l1i_u1-6 llc-0b0 1 1 0 0 0
l1i_u1-6 llc-0b1 1 1 0 1 0
l1i_u1-6 llc-0b2 1 1 0 2 0
l1i_u1-6 llc-0b3 1 1 0 3 0
l1i_u1-7 llc-0b0 1 1 0 0 0
l1i_u1-7 llc-0b1 1 1 0 1 0
l1i_u1-7 llc-0b2 1 1 0 2 0
l1i_u1-7 llc-0b3 1 1 0 3 0
l1i_u1-8 llc-0b0 1 1 0 0 0
l1i_u1-8 llc-0b1 1 1 0 1 0
l1i_u1-8 llc-0b2 1 1 0 2 0
l1i_u1-8 llc-0b3 1 1 0 3 0
l1i_u1-9 llc-0b0 1 1 0 0 0
l1i_u1-9 llc-0b1 1 1 0 1 0
l1i_u1-9 llc-0b2 1 1 0 2 0
l1i_u1-9 llc-0b3 1 1 0 3 0
l1i_u1-10 llc-0b0 1 1 0 0 0
l1i_u1-10 llc-0b1 1 1 0 1 0
l1i_u1-10 llc-0b2 1 1 0 2 0
l1i_u1-10 llc-0b3 1 1 0 3 0
l1i_u1-11 llc-0b0 1 1 0 0 0
l1i_u1-11 llc-0b1 1 1 0 1 0
l1i_u1-11 llc-0b2 1 1 0 2 0
l1i_u1-11 llc-0b3 1 1 0 3 0
l1i_u1-12 llc-0b0 1 1 0 0 0
l1i_u1-12 llc-0b1 1 1 0 1 0
l1i_u1-12 llc-0b2 1 1 0 2 0
l1i_u1-12 llc-0b3 1 1 0 3 0
l1i_u1-13 llc-0b0 1 1 0 0 0
l1i_u1-13 llc-0b1 1 1 0 1 0
l1i_u1-13 llc-0b2 1 1 0 2 0
l1i_u1-13 llc-0b3 1 1 0 3 0
l1i_u1-14 llc-0b0 1 1 0 0 0
l1i_u1-14 llc-0b1 1 1 0 1 0
l1i_u1-14 llc-0b2 1 1 0 2 0
l1i_u1-14 llc-0b3 1 1 0 3 0
l1i_u1-15 llc-0b0 1 1 0 0 0
l1i_u1-15 llc-0b1 1 1 0 1 0
l1i_u1-15 llc-0b2 1 1 0 2 0
l1i_u1-15 llc-0b3 1 1 0 3 0
l1d_u1-0 llc-0b0 1 1 0 0 0
l1d_u1-0 llc-0b1 1 1 0 1 0
l1d_u1-0 llc-0b2 1 1 0 2 0
l1d_u1-0 llc-0b3 1 1 0 3 0
l1d_u1-1 llc-0b0 1 1 0 0 0
l1d_u1-1 llc-0b1 1 1 0 1 0
l1d_u1-1 llc-0b2 1 1 0 2 0
l1d_u1-1 llc-0b3 1 1 0 3 0
l1d_u1-2 llc-0b0 1 1 0 0 0
l1d_u1-2 llc-0b1 1 1 0 1 0
l1d_u1-2 llc-0b2 1 1 0 2 0
l1d_u1-2 llc-0b3 1 1 0 3 0
l1d_u1-3 llc-0b0 1 1 0 0 0
l1d_u1-3 llc-0b1 1 1 0 1 0
l1d_u1-3 llc-0b2 1 1 0 2 0
l1d_u1-3 llc-0b3 1 1 0 3 0
l1d_u1-4 llc-0b0 1 1 0 0 0
l1d_u1-4 llc-0b1 1 1 0 1 0
l1d_u1-4 llc-0b2 1 1 0 2 0
l1d_u1-4 llc-0b3 1 1 0 3 0
l1d_u1-5 llc-0b0 1 1 0 0 0
l1d_u1-5 llc-0b1 1 1 0 1 0
l1d_u1-5 llc-0b2 1 1 0 2 0
l1d_u1-5 llc-0b3 1 1 0 3 0
l1d_u1-6 llc-0b0 1 1 0 0 0
l1d_u1-6 llc-0b1 1 1 0 1 0
l1d_u1-6 llc-0b2 1 1 0 2 0
l1d_u1-6 llc-0b3 1 1 0 3 0
l1d_u1-7 llc-0b0 1 1 0 0 0
l1d_u1-7 llc-0b1 1 1 0 1 0
l1d_u1-7 llc-0b2 1 1 0 2 0
l1d_u1-7 llc-0b3 1 1 0 3 0
l1d_u1-8 llc-0b0 1 1 0 0 0
l1d_u1-8 llc-0b1 1 1 0 1 0
l1d_u1-8 llc-0b2 1 1 0 2 0
l1d_u1-8 llc-0b3 1 1 0 3 0
l1d_u1-9 llc-0b0 1 1 0 0 0
l1d_u1-9 llc-0b1 1 1 0 1 0
l1d_u1-9 llc-0b2 1 1 0 2 0
l1d_u1-9 llc-0b3 1 1 0 3 0
l1d_u1-10 llc-0b0 1 1 0 0 0
l1d_u1-10 llc-0b1 1 1 0 1 0
l1d_u1-10 llc-0b2 1 1 0 2 0
l1d_u1-10 llc-0b3 1 1 0 3 0
l1d_u1-11 llc-0b0 1 1 0 0 0
l1d_u1-11 llc-0b1 1 1 0 1 0
l1d_u1-11 llc-0b2 1 1 0 2 0
l1d_u1-11 llc-0b3 1 1 0 3 0
l1d_u1-12 llc-0b0 1 1 0 0 0
l1d_u1-12 llc-0b1 1 1 0 1 0
l1d_u1-12 llc-0b2 1 1 0 2 0
l1d_u1-12 llc-0b3 1 1 0 3 0
l1d_u1-13 llc-0b0 1 1 0 0 0
l1d_u1-13 llc-0b1 1 1 0 1 0
l1d_u1-13 llc-0b2 1 1 0 2 0
l1d_u1-13 llc-0b3 1 1 0 3 0
l1d_u1-14 llc-0b0 1 1 0 0 0
l1d_u1-14 llc-0b1 1 1 0 1 0
l1d_u1-14 llc-0b2 1 1 0 2 0
l1d_u1-14 llc-0b3 1 1 0 3 0
l1d_u1-15 llc-0b0 1 1 0 0 0
l1d_u1-15 llc-0b1 1 1 0 1 0
l1d_u1-15 llc-0b2 1 1 0 2 0
l1d_u1-15 llc-0b3 1 1 0 3 0
l1i_u2-0 llc-0b0 1 2 0 0 0
l1i_u2-0 llc-0b1 1 2 0 1 0
l1i_u2-0 llc-0b2 1 2 0 2 0
l1i_u2-0 llc-0b3 1 2 0 3 0
l1i_u2-1 llc-0b0 1 2 0 0 0
l1i_u2-1 llc-0b1 1 2 0 1 0
l1i_u2-1 llc-0b2 1 2 0 2 0
l1i_u2-1 llc-0b3 1 2 0 3 0
l1i_u2-2 llc-0b0 1 2 0 0 0
l1i_u2-2 llc-0b1 1 2 0 1 0
l1i_u2-2 llc-0b2 1 2 0 2 0
l1i_u2-2 llc-0b3 1 2 0 3 0
l1i_u2-3 llc-0b0 1 2 0 0 0
l1i_u2-3 llc-0b1 1 2 0 1 0
l1i_u2-3 llc-0b2 1 2 0 2 0
l1i_u2-3 llc-0b3 1 2 0 3 0
l1i_u2-4 llc-0b0 1 2 0 0 0
l1i_u2-4 llc-0b1 1 2 0 1 0
l1i_u2-4 llc-0b2 1 2 0 2 0
l1i_u2-4 llc-0b3 1 2 0 3 0
l1i_u2-5 llc-0b0 1 2 0 0 0
l1i_u2-5 llc-0b1 1 2 0 1 0
l1i_u2-5 llc-0b2 1 2 0 2 0
l1i_u2-5 llc-0b3 1 2 0 3 0
l1i_u2-6 llc-0b0 1 2 0 0 0
l1i_u2-6 llc-0b1 1 2 0 1 0
l1i_u2-6 llc-0b2 1 2 0 2 0
l1i_u2-6 llc-0b3 1 2 0 3 0
l1i_u2-7 llc-0b0 1 2 0 0 0
l1i_u2-7 llc-0b1 1 2 0 1 0
l1i_u2-7 llc-0b2 1 2 0 2 0
l1i_u2-7 llc-0b3 1 2 0 3 0
l1i_u2-8 llc-0b0 1 2 0 0 0
l1i_u2-8 llc-0b1 1 2 0 1 0
l1i_u2-8 llc-0b2 1 2 0 2 0
l1i_u2-8 llc-0b3 1 2 0 3 0
l1i_u2-9 llc-0b0 1 2 0 0 0
l1i_u2-9 llc-0b1 1 2 0 1 0
l1i_u2-9 llc-0b2 1 2 0 2 0
l1i_u2-9 llc-0b3 1 2 0 3 0
l1i_u2-10 llc-0b0 1 2 0 0 0
l1i_u2-10 llc-0b1 1 2 0 1 0
l1i_u2-10 llc-0b2 1 2 0 2 0
l1i_u2-10 llc-0b3 1 2 0 3 0
l1i_u2-11 llc-0b0 1 2 0 0 0
l1i_u2-11 llc-0b1 1 2 0 1 0
l1i_u2-11 llc-0b2 1 2 0 2 0
l1i_u2-11 llc-0b3 1 2 0 3 0
l1i_u2-12 llc-0b0 1 2 0 0 0
l1i_u2-12 llc-0b1 1 2 0 1 0
l1i_u2-12 llc-0b2 1 2 0 2 0
l1i_u2-12 llc-0b3 1 2 0 3 0
l1i_u2-13 llc-0b0 1 2 0 0 0
l1i_u2-13 llc-0b1 1 2 0 1 0
l1i_u2-13 llc-0b2 1 2 0 2 0
l1i_u2-13 llc-0b3 1 2 0 3 0
l1i_u2-14 llc-0b0 1 2 0 0 0
l1i_u2-14 llc-0b1 1 2 0 1 0
l1i_u2-14 llc-0b2 1 2 0 2 0
l1i_u2-14 llc-0b3 1 2 0 3 0
l1i_u2-15 llc-0b0 1 2 0 0 0
l1i_u2-15 llc-0b1 1 2 0 1 0
l1i_u2-15 llc-0b2 1 2 0 2 0
l1i_u2-15 llc-0b3 1 2 0 3 0
l1d_u2-0 llc-0b0 1 2 0 0 0
l1d_u2-0 llc-0b1 1 2 0 1 0
l1d_u2-0 llc-0b2 1 2 0 2 0
l1d_u2-0 llc-0b3 1 2 0 3 0
l1d_u2-1 llc-0b0 1 2 0 0 0
l1d_u2-1 llc-0b1 1 2 0 1 0
l1d_u2-1 llc-0b2 1 2 0 2 0
l1d_u2-1 llc-0b3 1 2 0 3 0
l1d_u2-2 llc-0b0 1 2 0 0 0
l1d_u2-2 llc-0b1 1 2 0 1 0
l1d_u2-2 llc-0b2 1 2 0 2 0
l1d_u2-2 llc-0b3 1 2 0 3 0
l1d_u2-3 llc-0b0 1 2 0 0 0
l1d_u2-3 llc-0b1 1 2 0 1 0
l1d_u2-3 llc-0b2 1 2 0 2 0
l1d_u2-3 llc-0b3 1 2 0 3 0
l1d_u2-4 llc-0b0 1 2 0 0 0
l1d_u2-4 llc-0b1 1 2 0 1 0
l1d_u2-4 llc-0b2 1 2 0 2 0
l1d_u2-4 llc-0b3 1 2 0 3 0
l1d_u2-5 llc-0b0 1 2 0 0 0
l1d_u2-5 llc-0b1 1 2 0 1 0
l1d_u2-5 llc-0b2 1 2 0 2 0
l1d_u2-5 llc-0b3 1 2 0 3 0
l1d_u2-6 llc-0b0 1 2 0 0 0
l1d_u2-6 llc-0b1 1 2 0 1 0
l1d_u2-6 llc-0b2 1 2 0 2 0
l1d_u2-6 llc-0b3 1 2 0 3 0
l1d_u2-7 llc-0b0 1 2 0 0 0
l1d_u2-7 llc-0b1 1 2 0 1 0
l1d_u2-7 llc-0b2 1 2 0 2 0
l1d_u2-7 llc-0b3 1 2 0 3 0
l1d_u2-8 llc-0b0 1 2 0 0 0
l1d_u2-8 llc-0b1 1 2 0 1 0
l1d_u2-8 llc-0b2 1 2 0 2 0
l1d_u2-8 llc-0b3 1 2 0 3 0
l1d_u2-9 llc-0b0 1 2 0 0 0
l1d_u2-9 llc-0b1 1 2 0 1 0
l1d_u2-9 llc-0b2 1 2 0 2 0
l1d_u2-9 llc-0b3 1 2 0 3 0
l1d_u2-10 llc-0b0 1 2 0 0 0
l1d_u2-10 llc-0b1 1 2 0 1 0
l1d_u2-10 llc-0b2 1 2 0 2 0
l1d_u2-10 llc-0b3 1 2 0 3 0
l1d_u2-11 llc-0b0 1 2 0 0 0
l1d_u2-11 llc-0b1 1 2 0 1 0
l1d_u2-11 llc-0b2 1 2 0 2 0
l1d_u2-11 llc-0b3 1 2 0 3 0
l1d_u2-12 llc-0b0 1 2 0 0 0
l1d_u2-12 llc-0b1 1 2 0 1 0
l1d_u2-12 llc-0b2 1 2 0 2 0
l1d_u2-12 llc-0b3 1 2 0 3 0
l1d_u2-13 llc-0b0 1 2 0 0 0
l1d_u2-13 llc-0b1 1 2 0 1 0
l1d_u2-13 llc-0b2 1 2 0 2 0
l1d_u2-13 llc-0b3 1 2 0 3 0
l1d_u2-14 llc-0b0 1 2 0 0 0
l1d_u2-14 llc-0b1 1 2 0 1 0
l1d_u2-14 llc-0b2 1 2 0 2 0
l1d_u2-14 llc-0b3 1 2 0 3 0
l1d_u2-15 llc-0b0 1 2 0 0 0
l1d_u2-15 llc-0b1 1 2 0 1 0
l1d_u2-15 llc-0b2 1 2 0 2 0
l1d_u2-15 llc-0b3 1 2 0 3 0
l1i_u3-0 llc-0b0 1 3 0 0 0
l1i_u3-0 llc-0b1 1 3 0 1 0
l1i_u3-0 llc-0b2 1 3 0 2 0
l1i_u3-0 llc-0b3 1 3 0 3 0
l1i_u3-1 llc-0b0 1 3 0 0 0
l1i_u3-1 llc-0b1 1 3 0 1 0
l1i_u3-1 llc-0b2 1 3 0 2 0
l1i_u3-1 llc-0b3 1 3 0 3 0
l1i_u3-2 llc-0b0 1 3 0 0 0
l1i_u3-2 llc-0b1 1 3 0 1 0
l1i_u3-2 llc-0b2 1 3 0 2 0
l1i_u3-2 llc-0b3 1 3 0 3 0
l1i_u3-3 llc-0b0 1 3 0 0 0
l1i_u3-3 llc-0b1 1 3 0 1 0
l1i_u3-3 llc-0b2 1 3 0 2 0
l1i_u3-3 llc-0b3 1 3 0 3 0
l1i_u3-4 llc-0b0 1 3 0 0 0
l1i_u3-4 llc-0b1 1 3 0 1 0
l1i_u3-4 llc-0b2 1 3 0 2 0
l1i_u3-4 llc-0b3 1 3 0 3 0
l1i_u3-5 llc-0b0 1 3 0 0 0
l1i_u3-5 llc-0b1 1 3 0 1 0
l1i_u3-5 llc-0b2 1 3 0 2 0
l1i_u3-5 llc-0b3 1 3 0 3 0
l1i_u3-6 llc-0b0 1 3 0 0 0
l1i_u3-6 llc-0b1 1 3 0 1 0
l1i_u3-6 llc-0b2 1 3 0 2 0
l1i_u3-6 llc-0b3 1 3 0 3 0
l1i_u3-7 llc-0b0 1 3 0 0 0
l1i_u3-7 llc-0b1 1 3 0 1 0
l1i_u3-7 llc-0b2 1 3 0 2 0
l1i_u3-7 llc-0b3 1 3 0 3 0
l1i_u3-8 llc-0b0 1 3 0 0 0
l1i_u3-8 llc-0b1 1 3 0 1 0
l1i_u3-8 llc-0b2 1 3 0 2 0
l1i_u3-8 llc-0b3 1 3 0 3 0
l1i_u3-9 llc-0b0 1 3 0 0 0
l1i_u3-9 llc-0b1 1 3 0 1 0
l1i_u3-9 llc-0b2 1 3 0 2 0
l1i_u3-9 llc-0b3 1 3 0 3 0
l1i_u3-10 llc-0b0 1 3 0 0 0
l1i_u3-10 llc-0b1 1 3 0 1 0
l1i_u3-10 llc-0b2 1 3 0 2 0
l1i_u3-10 llc-0b3 1 3 0 3 0
l1i_u3-11 llc-0b0 1 3 0 0 0
l1i_u3-11 llc-0b1 1 3 0 1 0
l1i_u3-11 llc-0b2 1 3 0 2 0
l1i_u3-11 llc-0b3 1 3 0 3 0
l1i_u3-12 llc-0b0 1 3 0 0 0
l1i_u3-12 llc-0b1 1 3 0 1 0
l1i_u3-12 llc-0b2 1 3 0 2 0
l1i_u3-12 llc-0b3 1 3 0 3 0
l1i_u3-13 llc-0b0 1 3 0 0 0
l1i_u3-13 llc-0b1 1 3 0 1 0
l1i_u3-13 llc-0b2 1 3 0 2 0
l1i_u3-13 llc-0b3 1 3 0 3 0
l1i_u3-14 llc-0b0 1 3 0 0 0
l1i_u3-14 llc-0b1 1 3 0 1 0
l1i_u3-14 llc-0b2 1 3 0 2 0
l1i_u3-14 llc-0b3 1 3 0 3 0
l1i_u3-15 llc-0b0 1 3 0 0 0
l1i_u3-15 llc-0b1 1 3 0 1 0
l1i_u3-15 llc-0b2 1 3 0 2 0
l1i_u3-15 llc-0b3 1 3 0 3 0
l1d_u3-0 llc-0b0 1 3 0 0 0
l1d_u3-0 llc-0b1 1 3 0 1 0
l1d_u3-0 llc-0b2 1 3 0 2 0
l1d_u3-0 llc-0b3 1 3 0 3 0
l1d_u3-1 llc-0b0 1 3 0 0 0
l1d_u3-1 llc-0b1 1 3 0 1 0
l1d_u3-1 llc-0b2 1 3 0 2 0
l1d_u3-1 llc-0b3 1 3 0 3 0
l1d_u3-2 llc-0b0 1 3 0 0 0
l1d_u3-2 llc-0b1 1 3 0 1 0
l1d_u3-2 llc-0b2 1 3 0 2 0
l1d_u3-2 llc-0b3 1 3 0 3 0
l1d_u3-3 llc-0b0 1 3 0 0 0
l1d_u3-3 llc-0b1 1 3 0 1 0
l1d_u3-3 llc-0b2 1 3 0 2 0
l1d_u3-3 llc-0b3 1 3 0 3 0
l1d_u3-4 llc-0b0 1 3 0 0 0
l1d_u3-4 llc-0b1 1 3 0 1 0
l1d_u3-4 llc-0b2 1 3 0 2 0
l1d_u3-4 llc-0b3 1 3 0 3 0
l1d_u3-5 llc-0b0 1 3 0 0 0
l1d_u3-5 llc-0b1 1 3 0 1 0
l1d_u3-5 llc-0b2 1 3 0 2 0
l1d_u3-5 llc-0b3 1 3 0 3 0
l1d_u3-6 llc-0b0 1 3 0 0 0
l1d_u3-6 llc-0b1 1 3 0 1 0
l1d_u3-6 llc-0b2 1 3 0 2 0
l1d_u3-6 llc-0b3 1 3 0 3 0
l1d_u3-7 llc-0b0 1 3 0 0 0
l1d_u3-7 llc-0b1 1 3 0 1 0
l1d_u3-7 llc-0b2 1 3 0 2 0
l1d_u3-7 llc-0b3 1 3 0 3 0
l1d_u3-8 llc-0b0 1 3 0 0 0
l1d_u3-8 llc-0b1 1 3 0 1 0
l1d_u3-8 llc-0b2 1 3 0 2 0
l1d_u3-8 llc-0b3 1 3 0 3 0
l1d_u3-9 llc-0b0 1 3 0 0 0
l1d_u3-9 llc-0b1 1 3 0 1 0
l1d_u3-9 llc-0b2 1 3 0 2 0
l1d_u3-9 llc-0b3 1 3 0 3 0
l1d_u3-10 llc-0b0 1 3 0 0 0
l1d_u3-10 llc-0b1 1 3 0 1 0
l1d_u3-10 llc-0b2 1 3 0 2 0
l1d_u3-10 llc-0b3 1 3 0 3 0
l1d_u3-11 llc-0b0 1 3 0 0 0
l1d_u3-11 llc-0b1 1 3 0 1 0
l1d_u3-11 llc-0b2 1 3 0 2 0
l1d_u3-11 llc-0b3 1 3 0 3 0
l1d_u3-12 llc-0b0 1 3 0 0 0
l1d_u3-12 llc-0b1 1 3 0 1 0
l1d_u3-12 llc-0b2 1 3 0 2 0
l1d_u3-12 llc-0b3 1 3 0 3 0
l1d_u3-13 llc-0b0 1 3 0 0 0
l1d_u3-13 llc-0b1 1 3 0 1 0
l1d_u3-13 llc-0b2 1 3 0 2 0
l1d_u3-13 llc-0b3 1 3 0 3 0
l1d_u3-14 llc-0b0 1 3 0 0 0
l1d_u3-14 llc-0b1 1 3 0 1 0
l1d_u3-14 llc-0b2 1 3 0 2 0
l1d_u3-14 llc-0b3 1 3 0 3 0
l1d_u3-15 llc-0b0 1 3 0 0 0
l1d_u3-15 llc-0b1 1 3 0 1 0
l1d_u3-15 llc-0b2 1 3 0 2 0
l1d_u3-15 llc-0b3 1 3 0 3 0
llc-0b0 mem-0 0 0
llc-0b1 mem-0 0 0
llc-0b2 mem-0 0 0
llc-0b3 mem-0 0 0
